solid OpenSCAD_Model
  facet normal 0 0 1
    outer loop
      vertex -34.01 -16 11
      vertex -37.9375 -21 11
      vertex -34.01 -17.35 11
    endloop
  endfacet
  facet normal 0 0 1
    outer loop
      vertex -34.01 -16 11
      vertex -42.375 -19 11
      vertex -37.9375 -21 11
    endloop
  endfacet
  facet normal 0 0 1
    outer loop
      vertex -42.375 -19 11
      vertex -51.25 -19 11
      vertex -46.8125 -21 11
    endloop
  endfacet
  facet normal -0 0 1
    outer loop
      vertex -59 -16 11
      vertex -42.375 -19 11
      vertex -34.01 -16 11
    endloop
  endfacet
  facet normal 0 0 1
    outer loop
      vertex -42.375 -19 11
      vertex -59 -16 11
      vertex -51.25 -19 11
    endloop
  endfacet
  facet normal 0 0 1
    outer loop
      vertex -59 -16 11
      vertex -55.6875 -21 11
      vertex -51.25 -19 11
    endloop
  endfacet
  facet normal 0 0 1
    outer loop
      vertex -55.6875 -21 11
      vertex -59 -16 11
      vertex -59 -19.507 11
    endloop
  endfacet
  facet normal -0 0 1
    outer loop
      vertex -34.01 -17.35 11
      vertex -33.5 -19 11
      vertex -31.85 -17.35 11
    endloop
  endfacet
  facet normal 0 0 1
    outer loop
      vertex -33.5 -19 11
      vertex -34.01 -17.35 11
      vertex -37.9375 -21 11
    endloop
  endfacet
  facet normal 0 0 1
    outer loop
      vertex -33.5 19 11
      vertex -34.01 17.35 11
      vertex -31.85 17.35 11
    endloop
  endfacet
  facet normal 0 0 1
    outer loop
      vertex -37.9375 21 11
      vertex -34.01 17.35 11
      vertex -33.5 19 11
    endloop
  endfacet
  facet normal 0 0 1
    outer loop
      vertex -37.9375 21 11
      vertex -34.01 16 11
      vertex -34.01 17.35 11
    endloop
  endfacet
  facet normal -0 0 1
    outer loop
      vertex -42.375 19 11
      vertex -34.01 16 11
      vertex -37.9375 21 11
    endloop
  endfacet
  facet normal 0 0 1
    outer loop
      vertex -51.25 19 11
      vertex -42.375 19 11
      vertex -46.8125 21 11
    endloop
  endfacet
  facet normal 0 0 1
    outer loop
      vertex -59 16 11
      vertex -42.375 19 11
      vertex -51.25 19 11
    endloop
  endfacet
  facet normal 0 0 1
    outer loop
      vertex -59 16 11
      vertex -55.6875 21 11
      vertex -59 19.507 11
    endloop
  endfacet
  facet normal 0 0 1
    outer loop
      vertex -55.6875 21 11
      vertex -59 16 11
      vertex -51.25 19 11
    endloop
  endfacet
  facet normal 0 0 1
    outer loop
      vertex -42.375 19 11
      vertex -59 16 11
      vertex -34.01 16 11
    endloop
  endfacet
  facet normal 0.707107 -0.707107 0
    outer loop
      vertex -31.85 -17.35 11
      vertex -33.5 -19 11
      vertex -31.85 -17.35 5.5
    endloop
  endfacet
  facet normal 0.707107 -0.707107 0
    outer loop
      vertex -31.85 -17.35 5.5
      vertex -31 -16.5 -7.62939e-07
      vertex -31 -16.5 5.5
    endloop
  endfacet
  facet normal 0.707107 -0.707107 0
    outer loop
      vertex -33.5 -19 -7.62939e-07
      vertex -31.85 -17.35 5.5
      vertex -33.5 -19 11
    endloop
  endfacet
  facet normal 0.707107 -0.707107 0
    outer loop
      vertex -31.85 -17.35 5.5
      vertex -33.5 -19 -7.62939e-07
      vertex -31 -16.5 -7.62939e-07
    endloop
  endfacet
  facet normal 1 -0 0
    outer loop
      vertex -31 -16.5 5.5
      vertex -31 16.5 -7.62939e-07
      vertex -31 16.5 5.5
    endloop
  endfacet
  facet normal 1 0 0
    outer loop
      vertex -31 16.5 -7.62939e-07
      vertex -31 -16.5 5.5
      vertex -31 -16.5 -7.62939e-07
    endloop
  endfacet
  facet normal 0.707107 0.707107 -0
    outer loop
      vertex -31.85 17.35 5.5
      vertex -33.5 19 11
      vertex -31.85 17.35 11
    endloop
  endfacet
  facet normal 0.707107 0.707107 0
    outer loop
      vertex -33.5 19 11
      vertex -31.85 17.35 5.5
      vertex -33.5 19 -7.62939e-07
    endloop
  endfacet
  facet normal 0.707107 0.707107 -0
    outer loop
      vertex -31 16.5 -7.62939e-07
      vertex -31.85 17.35 5.5
      vertex -31 16.5 5.5
    endloop
  endfacet
  facet normal 0.707107 0.707107 0
    outer loop
      vertex -31.85 17.35 5.5
      vertex -31 16.5 -7.62939e-07
      vertex -33.5 19 -7.62939e-07
    endloop
  endfacet
  facet normal 0.410899 0.911681 -0
    outer loop
      vertex -33.5 19 -7.62939e-07
      vertex -37.9375 21 11
      vertex -33.5 19 11
    endloop
  endfacet
  facet normal 0.410899 0.911681 0
    outer loop
      vertex -37.9375 21 11
      vertex -33.5 19 -7.62939e-07
      vertex -37.9375 21 -7.62939e-07
    endloop
  endfacet
  facet normal -0.410899 0.911681 0
    outer loop
      vertex -37.9375 21 -7.62939e-07
      vertex -42.375 19 11
      vertex -37.9375 21 11
    endloop
  endfacet
  facet normal -0.410899 0.911681 0
    outer loop
      vertex -42.375 19 11
      vertex -37.9375 21 -7.62939e-07
      vertex -42.375 19 -7.62939e-07
    endloop
  endfacet
  facet normal 0.410899 0.911681 -0
    outer loop
      vertex -42.375 19 -7.62939e-07
      vertex -46.8125 21 11
      vertex -42.375 19 11
    endloop
  endfacet
  facet normal 0.410899 0.911681 0
    outer loop
      vertex -46.8125 21 11
      vertex -42.375 19 -7.62939e-07
      vertex -46.8125 21 -7.62939e-07
    endloop
  endfacet
  facet normal -0.410899 0.911681 0
    outer loop
      vertex -46.8125 21 -7.62939e-07
      vertex -51.25 19 11
      vertex -46.8125 21 11
    endloop
  endfacet
  facet normal -0.410899 0.911681 0
    outer loop
      vertex -51.25 19 11
      vertex -46.8125 21 -7.62939e-07
      vertex -51.25 19 -7.62939e-07
    endloop
  endfacet
  facet normal 0.410899 0.911681 -0
    outer loop
      vertex -51.25 19 -7.62939e-07
      vertex -55.6875 21 11
      vertex -51.25 19 11
    endloop
  endfacet
  facet normal 0.410899 0.911681 0
    outer loop
      vertex -55.6875 21 11
      vertex -51.25 19 -7.62939e-07
      vertex -55.6875 21 -7.62939e-07
    endloop
  endfacet
  facet normal -0.410908 0.911677 0
    outer loop
      vertex -55.6875 21 -7.62939e-07
      vertex -59 19.507 11
      vertex -55.6875 21 11
    endloop
  endfacet
  facet normal -0.410908 0.911677 0
    outer loop
      vertex -59 19.507 11
      vertex -55.6875 21 -7.62939e-07
      vertex -59 19.507 -7.62939e-07
    endloop
  endfacet
  facet normal -0.410908 -0.911677 0
    outer loop
      vertex -59 -19.507 -7.62939e-07
      vertex -55.6875 -21 11
      vertex -59 -19.507 11
    endloop
  endfacet
  facet normal -0.410908 -0.911677 -0
    outer loop
      vertex -55.6875 -21 11
      vertex -59 -19.507 -7.62939e-07
      vertex -55.6875 -21 -7.62939e-07
    endloop
  endfacet
  facet normal 0.410899 -0.911681 0
    outer loop
      vertex -55.6875 -21 -7.62939e-07
      vertex -51.25 -19 11
      vertex -55.6875 -21 11
    endloop
  endfacet
  facet normal 0.410899 -0.911681 0
    outer loop
      vertex -51.25 -19 11
      vertex -55.6875 -21 -7.62939e-07
      vertex -51.25 -19 -7.62939e-07
    endloop
  endfacet
  facet normal -0.410899 -0.911681 0
    outer loop
      vertex -51.25 -19 -7.62939e-07
      vertex -46.8125 -21 11
      vertex -51.25 -19 11
    endloop
  endfacet
  facet normal -0.410899 -0.911681 -0
    outer loop
      vertex -46.8125 -21 11
      vertex -51.25 -19 -7.62939e-07
      vertex -46.8125 -21 -7.62939e-07
    endloop
  endfacet
  facet normal 0.410899 -0.911681 0
    outer loop
      vertex -46.8125 -21 -7.62939e-07
      vertex -42.375 -19 11
      vertex -46.8125 -21 11
    endloop
  endfacet
  facet normal 0.410899 -0.911681 0
    outer loop
      vertex -42.375 -19 11
      vertex -46.8125 -21 -7.62939e-07
      vertex -42.375 -19 -7.62939e-07
    endloop
  endfacet
  facet normal -0.410899 -0.911681 0
    outer loop
      vertex -42.375 -19 -7.62939e-07
      vertex -37.9375 -21 11
      vertex -42.375 -19 11
    endloop
  endfacet
  facet normal -0.410899 -0.911681 -0
    outer loop
      vertex -37.9375 -21 11
      vertex -42.375 -19 -7.62939e-07
      vertex -37.9375 -21 -7.62939e-07
    endloop
  endfacet
  facet normal 0.410899 -0.911681 0
    outer loop
      vertex -37.9375 -21 -7.62939e-07
      vertex -33.5 -19 11
      vertex -37.9375 -21 11
    endloop
  endfacet
  facet normal 0.410899 -0.911681 0
    outer loop
      vertex -33.5 -19 11
      vertex -37.9375 -21 -7.62939e-07
      vertex -33.5 -19 -7.62939e-07
    endloop
  endfacet
  facet normal -1 0 0
    outer loop
      vertex -34 -16 -7.62939e-07
      vertex -34 16 5.5
      vertex -34 16 -7.62939e-07
    endloop
  endfacet
  facet normal -1 -0 0
    outer loop
      vertex -34 16 5.5
      vertex -34 -16 -7.62939e-07
      vertex -34 -16 5.5
    endloop
  endfacet
  facet normal 0 -1 0
    outer loop
      vertex -59 16 -7.62939e-07
      vertex -34 16 5.5
      vertex -59 16 5.5
    endloop
  endfacet
  facet normal 0 -1 -0
    outer loop
      vertex -34 16 5.5
      vertex -59 16 -7.62939e-07
      vertex -34 16 -7.62939e-07
    endloop
  endfacet
  facet normal 0 -1 0
    outer loop
      vertex -59 16 9.86
      vertex -34.01 16 11
      vertex -59 16 11
    endloop
  endfacet
  facet normal 0 -1 -0
    outer loop
      vertex -34.01 16 11
      vertex -59 16 9.86
      vertex -34.01 16 9.86
    endloop
  endfacet
  facet normal 0 1 -0
    outer loop
      vertex -34 -16 -7.62939e-07
      vertex -59 -16 5.5
      vertex -34 -16 5.5
    endloop
  endfacet
  facet normal 0 1 0
    outer loop
      vertex -59 -16 5.5
      vertex -34 -16 -7.62939e-07
      vertex -59 -16 -7.62939e-07
    endloop
  endfacet
  facet normal 0 1 -0
    outer loop
      vertex -34.01 -16 9.86
      vertex -59 -16 11
      vertex -34.01 -16 11
    endloop
  endfacet
  facet normal 0 1 0
    outer loop
      vertex -59 -16 11
      vertex -34.01 -16 9.86
      vertex -59 -16 9.86
    endloop
  endfacet
  facet normal 0 0 1
    outer loop
      vertex -34 16 5.5
      vertex -31 16.5 5.5
      vertex -31.85 17.35 5.5
    endloop
  endfacet
  facet normal 0 0 1
    outer loop
      vertex -31 16.5 5.5
      vertex -34 16 5.5
      vertex -31 -16.5 5.5
    endloop
  endfacet
  facet normal -0 0 1
    outer loop
      vertex -34 -16 5.5
      vertex -31 -16.5 5.5
      vertex -34 16 5.5
    endloop
  endfacet
  facet normal -0 0 1
    outer loop
      vertex -59 17.35 5.5
      vertex -34 16 5.5
      vertex -31.85 17.35 5.5
    endloop
  endfacet
  facet normal 0 0 1
    outer loop
      vertex -34 16 5.5
      vertex -59 17.35 5.5
      vertex -59 16 5.5
    endloop
  endfacet
  facet normal 0 0 1
    outer loop
      vertex -31 -16.5 5.5
      vertex -34 -16 5.5
      vertex -31.85 -17.35 5.5
    endloop
  endfacet
  facet normal 0 0 1
    outer loop
      vertex -59 -17.35 5.5
      vertex -34 -16 5.5
      vertex -59 -16 5.5
    endloop
  endfacet
  facet normal 0 0 1
    outer loop
      vertex -34 -16 5.5
      vertex -59 -17.35 5.5
      vertex -31.85 -17.35 5.5
    endloop
  endfacet
  facet normal 0 -1 0
    outer loop
      vertex -59 17.35 8.51
      vertex -59 17.35 5.5
      vertex -34.01 17.35 8.51
    endloop
  endfacet
  facet normal 0 -1 0
    outer loop
      vertex -34.01 17.35 8.51
      vertex -31.85 17.35 11
      vertex -34.01 17.35 11
    endloop
  endfacet
  facet normal 0 -1 0
    outer loop
      vertex -34.01 17.35 8.51
      vertex -31.85 17.35 5.5
      vertex -31.85 17.35 11
    endloop
  endfacet
  facet normal 0 -1 0
    outer loop
      vertex -31.85 17.35 5.5
      vertex -34.01 17.35 8.51
      vertex -59 17.35 5.5
    endloop
  endfacet
  facet normal 0 1 0
    outer loop
      vertex -31.85 -17.35 11
      vertex -34.01 -17.35 8.51
      vertex -34.01 -17.35 11
    endloop
  endfacet
  facet normal 0 1 -0
    outer loop
      vertex -31.85 -17.35 5.5
      vertex -34.01 -17.35 8.51
      vertex -31.85 -17.35 11
    endloop
  endfacet
  facet normal 0 1 0
    outer loop
      vertex -59 -17.35 5.5
      vertex -34.01 -17.35 8.51
      vertex -31.85 -17.35 5.5
    endloop
  endfacet
  facet normal 0 1 0
    outer loop
      vertex -34.01 -17.35 8.51
      vertex -59 -17.35 5.5
      vertex -59 -17.35 8.51
    endloop
  endfacet
  facet normal 0 0.707107 -0.707107
    outer loop
      vertex -34.01 -17.35 8.51
      vertex -59 -16 9.86
      vertex -34.01 -16 9.86
    endloop
  endfacet
  facet normal 0 0.707107 -0.707107
    outer loop
      vertex -59 -16 9.86
      vertex -34.01 -17.35 8.51
      vertex -59 -17.35 8.51
    endloop
  endfacet
  facet normal 0 -0.707107 -0.707107
    outer loop
      vertex -59 17.35 8.51
      vertex -34.01 16 9.86
      vertex -59 16 9.86
    endloop
  endfacet
  facet normal 0 -0.707107 -0.707107
    outer loop
      vertex -34.01 16 9.86
      vertex -59 17.35 8.51
      vertex -34.01 17.35 8.51
    endloop
  endfacet
  facet normal 1 -0 0
    outer loop
      vertex -34.01 -17.35 11
      vertex -34.01 -16 9.86
      vertex -34.01 -16 11
    endloop
  endfacet
  facet normal 1 0 0
    outer loop
      vertex -34.01 -16 9.86
      vertex -34.01 -17.35 11
      vertex -34.01 -17.35 8.51
    endloop
  endfacet
  facet normal 1 0 0
    outer loop
      vertex -34.01 16 9.86
      vertex -34.01 17.35 11
      vertex -34.01 16 11
    endloop
  endfacet
  facet normal 1 0 0
    outer loop
      vertex -34.01 17.35 11
      vertex -34.01 16 9.86
      vertex -34.01 17.35 8.51
    endloop
  endfacet
  facet normal 0 0 -1
    outer loop
      vertex -34 -16 -7.62939e-07
      vertex -31 -16.5 -7.62939e-07
      vertex -33.5 -19 -7.62939e-07
    endloop
  endfacet
  facet normal 0 0 -1
    outer loop
      vertex -31 -16.5 -7.62939e-07
      vertex -34 -16 -7.62939e-07
      vertex -31 16.5 -7.62939e-07
    endloop
  endfacet
  facet normal 0 0 -1
    outer loop
      vertex -34 16 -7.62939e-07
      vertex -31 16.5 -7.62939e-07
      vertex -34 -16 -7.62939e-07
    endloop
  endfacet
  facet normal 0 0 -1
    outer loop
      vertex -37.9375 -21 -7.62939e-07
      vertex -34 -16 -7.62939e-07
      vertex -33.5 -19 -7.62939e-07
    endloop
  endfacet
  facet normal 0 0 -1
    outer loop
      vertex -42.375 -19 -7.62939e-07
      vertex -34 -16 -7.62939e-07
      vertex -37.9375 -21 -7.62939e-07
    endloop
  endfacet
  facet normal 0 0 -1
    outer loop
      vertex -51.25 -19 -7.62939e-07
      vertex -42.375 -19 -7.62939e-07
      vertex -46.8125 -21 -7.62939e-07
    endloop
  endfacet
  facet normal 0 0 -1
    outer loop
      vertex -59 -16 -7.62939e-07
      vertex -42.375 -19 -7.62939e-07
      vertex -51.25 -19 -7.62939e-07
    endloop
  endfacet
  facet normal 0 0 -1
    outer loop
      vertex -59 -16 -7.62939e-07
      vertex -55.6875 -21 -7.62939e-07
      vertex -59 -19.507 -7.62939e-07
    endloop
  endfacet
  facet normal 0 0 -1
    outer loop
      vertex -55.6875 -21 -7.62939e-07
      vertex -59 -16 -7.62939e-07
      vertex -51.25 -19 -7.62939e-07
    endloop
  endfacet
  facet normal 0 0 -1
    outer loop
      vertex -42.375 -19 -7.62939e-07
      vertex -59 -16 -7.62939e-07
      vertex -34 -16 -7.62939e-07
    endloop
  endfacet
  facet normal -0 0 -1
    outer loop
      vertex -31 16.5 -7.62939e-07
      vertex -34 16 -7.62939e-07
      vertex -33.5 19 -7.62939e-07
    endloop
  endfacet
  facet normal 0 0 -1
    outer loop
      vertex -34 16 -7.62939e-07
      vertex -37.9375 21 -7.62939e-07
      vertex -33.5 19 -7.62939e-07
    endloop
  endfacet
  facet normal 0 0 -1
    outer loop
      vertex -34 16 -7.62939e-07
      vertex -42.375 19 -7.62939e-07
      vertex -37.9375 21 -7.62939e-07
    endloop
  endfacet
  facet normal 0 0 -1
    outer loop
      vertex -42.375 19 -7.62939e-07
      vertex -51.25 19 -7.62939e-07
      vertex -46.8125 21 -7.62939e-07
    endloop
  endfacet
  facet normal 0 0 -1
    outer loop
      vertex -59 16 -7.62939e-07
      vertex -42.375 19 -7.62939e-07
      vertex -34 16 -7.62939e-07
    endloop
  endfacet
  facet normal -0 0 -1
    outer loop
      vertex -42.375 19 -7.62939e-07
      vertex -59 16 -7.62939e-07
      vertex -51.25 19 -7.62939e-07
    endloop
  endfacet
  facet normal 0 0 -1
    outer loop
      vertex -59 16 -7.62939e-07
      vertex -55.6875 21 -7.62939e-07
      vertex -51.25 19 -7.62939e-07
    endloop
  endfacet
  facet normal 0 0 -1
    outer loop
      vertex -55.6875 21 -7.62939e-07
      vertex -59 16 -7.62939e-07
      vertex -59 19.507 -7.62939e-07
    endloop
  endfacet
  facet normal -1 0 0
    outer loop
      vertex -59 19.507 -7.62939e-07
      vertex -59 17.35 5.5
      vertex -59 19.507 11
    endloop
  endfacet
  facet normal -1 0 0
    outer loop
      vertex -59 16 -7.62939e-07
      vertex -59 17.35 5.5
      vertex -59 19.507 -7.62939e-07
    endloop
  endfacet
  facet normal -1 -0 0
    outer loop
      vertex -59 17.35 5.5
      vertex -59 16 -7.62939e-07
      vertex -59 16 5.5
    endloop
  endfacet
  facet normal -1 0 0
    outer loop
      vertex -59 17.35 8.51
      vertex -59 19.507 11
      vertex -59 17.35 5.5
    endloop
  endfacet
  facet normal -1 0 0
    outer loop
      vertex -59 16 9.86
      vertex -59 19.507 11
      vertex -59 17.35 8.51
    endloop
  endfacet
  facet normal -1 -0 0
    outer loop
      vertex -59 19.507 11
      vertex -59 16 9.86
      vertex -59 16 11
    endloop
  endfacet
  facet normal -1 0 0
    outer loop
      vertex -59 -16 -7.62939e-07
      vertex -59 -17.35 5.5
      vertex -59 -16 5.5
    endloop
  endfacet
  facet normal -1 0 0
    outer loop
      vertex -59 -19.507 11
      vertex -59 -17.35 5.5
      vertex -59 -19.507 -7.62939e-07
    endloop
  endfacet
  facet normal -1 0 0
    outer loop
      vertex -59 -19.507 -7.62939e-07
      vertex -59 -17.35 5.5
      vertex -59 -16 -7.62939e-07
    endloop
  endfacet
  facet normal -1 0 0
    outer loop
      vertex -59 -19.507 11
      vertex -59 -16 9.86
      vertex -59 -17.35 8.51
    endloop
  endfacet
  facet normal -1 0 0
    outer loop
      vertex -59 -16 9.86
      vertex -59 -19.507 11
      vertex -59 -16 11
    endloop
  endfacet
  facet normal -1 0 0
    outer loop
      vertex -59 -17.35 5.5
      vertex -59 -19.507 11
      vertex -59 -17.35 8.51
    endloop
  endfacet
  facet normal -1 0 0
    outer loop
      vertex -30.65 40 0
      vertex -30.65 38 0
      vertex -30.65 40 2.25
    endloop
  endfacet
  facet normal -1 0 0
    outer loop
      vertex -30.65 74 2.25
      vertex -30.65 76 0
      vertex -30.65 74 0
    endloop
  endfacet
  facet normal -1 0 0
    outer loop
      vertex -30.65 76 0
      vertex -30.65 74 2.25
      vertex -30.65 76 5
    endloop
  endfacet
  facet normal -1 0 0
    outer loop
      vertex -30.65 40 2.25
      vertex -30.65 76 5
      vertex -30.65 74 2.25
    endloop
  endfacet
  facet normal -1 0 0
    outer loop
      vertex -30.65 40 2.25
      vertex -30.65 38 5
      vertex -30.65 76 5
    endloop
  endfacet
  facet normal -1 0 0
    outer loop
      vertex -30.65 38 5
      vertex -30.65 40 2.25
      vertex -30.65 38 0
    endloop
  endfacet
  facet normal 0 0 1
    outer loop
      vertex -30.65 74 2.25
      vertex -44.3268 57.1618 2.25
      vertex -30.65 40 2.25
    endloop
  endfacet
  facet normal 0 0 1
    outer loop
      vertex -30.65 74 2.25
      vertex -44.4012 58.1248 2.25
      vertex -44.3268 57.1618 2.25
    endloop
  endfacet
  facet normal 0 0 1
    outer loop
      vertex -30.65 74 2.25
      vertex -44.6243 58.9691 2.25
      vertex -44.4012 58.1248 2.25
    endloop
  endfacet
  facet normal 0 0 1
    outer loop
      vertex -30.65 74 2.25
      vertex -44.9963 59.6948 2.25
      vertex -44.6243 58.9691 2.25
    endloop
  endfacet
  facet normal 0 0 1
    outer loop
      vertex -30.65 74 2.25
      vertex -45.517 60.3019 2.25
      vertex -44.9963 59.6948 2.25
    endloop
  endfacet
  facet normal 0 0 1
    outer loop
      vertex -30.65 74 2.25
      vertex -46.1734 60.7812 2.25
      vertex -45.517 60.3019 2.25
    endloop
  endfacet
  facet normal 0 0 1
    outer loop
      vertex -30.65 74 2.25
      vertex -46.9527 61.1236 2.25
      vertex -46.1734 60.7812 2.25
    endloop
  endfacet
  facet normal 0 0 1
    outer loop
      vertex -30.65 74 2.25
      vertex -47.8548 61.329 2.25
      vertex -46.9527 61.1236 2.25
    endloop
  endfacet
  facet normal -0 0 1
    outer loop
      vertex -59 74 2.25
      vertex -47.8548 61.329 2.25
      vertex -30.65 74 2.25
    endloop
  endfacet
  facet normal 0 0 1
    outer loop
      vertex -47.8548 61.329 2.25
      vertex -59 74 2.25
      vertex -48.8797 61.3974 2.25
    endloop
  endfacet
  facet normal 0 0 1
    outer loop
      vertex -51.9924 61.3974 2.25
      vertex -53.1261 57.1375 2.25
      vertex -51.9924 52.7981 2.25
    endloop
  endfacet
  facet normal 0 0 1
    outer loop
      vertex -51.9924 61.3974 2.25
      vertex -53.198 58.1052 2.25
      vertex -53.1261 57.1375 2.25
    endloop
  endfacet
  facet normal 0 0 1
    outer loop
      vertex -51.9924 61.3974 2.25
      vertex -53.4137 58.9638 2.25
      vertex -53.198 58.1052 2.25
    endloop
  endfacet
  facet normal 0 0 1
    outer loop
      vertex -51.9924 61.3974 2.25
      vertex -53.7732 59.7133 2.25
      vertex -53.4137 58.9638 2.25
    endloop
  endfacet
  facet normal 0 0 1
    outer loop
      vertex -51.9924 61.3974 2.25
      vertex -54.2766 60.3538 2.25
      vertex -53.7732 59.7133 2.25
    endloop
  endfacet
  facet normal 0 0 1
    outer loop
      vertex -48.8797 61.3974 2.25
      vertex -59 74 2.25
      vertex -51.9924 61.3974 2.25
    endloop
  endfacet
  facet normal 0 -0 1
    outer loop
      vertex -55.6505 61.2327 2.25
      vertex -51.9924 61.3974 2.25
      vertex -59 74 2.25
    endloop
  endfacet
  facet normal 0 0 1
    outer loop
      vertex -51.9924 61.3974 2.25
      vertex -54.9076 60.8665 2.25
      vertex -54.2766 60.3538 2.25
    endloop
  endfacet
  facet normal 0 0 1
    outer loop
      vertex -51.9924 61.3974 2.25
      vertex -55.6505 61.2327 2.25
      vertex -54.9076 60.8665 2.25
    endloop
  endfacet
  facet normal 0 0 1
    outer loop
      vertex -55.6505 61.2327 2.25
      vertex -59 74 2.25
      vertex -56.5051 61.4524 2.25
    endloop
  endfacet
  facet normal 0 0 1
    outer loop
      vertex -56.5051 61.4524 2.25
      vertex -59 74 2.25
      vertex -57.4715 61.5256 2.25
    endloop
  endfacet
  facet normal 0 0 1
    outer loop
      vertex -57.4715 61.5256 2.25
      vertex -59 74 2.25
      vertex -58.4377 61.4531 2.25
    endloop
  endfacet
  facet normal 0 0 1
    outer loop
      vertex -58.4377 61.4531 2.25
      vertex -59 74 2.25
      vertex -59 61.31 2.25
    endloop
  endfacet
  facet normal -0 0 1
    outer loop
      vertex -44.3594 56.5178 2.25
      vertex -30.65 40 2.25
      vertex -44.3268 57.1618 2.25
    endloop
  endfacet
  facet normal -0 0 1
    outer loop
      vertex -44.4573 55.9161 2.25
      vertex -30.65 40 2.25
      vertex -44.3594 56.5178 2.25
    endloop
  endfacet
  facet normal -0 0 1
    outer loop
      vertex -44.6203 55.3567 2.25
      vertex -30.65 40 2.25
      vertex -44.4573 55.9161 2.25
    endloop
  endfacet
  facet normal -0 0 1
    outer loop
      vertex -44.8486 54.8396 2.25
      vertex -30.65 40 2.25
      vertex -44.6203 55.3567 2.25
    endloop
  endfacet
  facet normal -0 0 1
    outer loop
      vertex -45.1366 54.3729 2.25
      vertex -30.65 40 2.25
      vertex -44.8486 54.8396 2.25
    endloop
  endfacet
  facet normal -0 0 1
    outer loop
      vertex -45.4788 53.9646 2.25
      vertex -30.65 40 2.25
      vertex -45.1366 54.3729 2.25
    endloop
  endfacet
  facet normal -0 0 1
    outer loop
      vertex -45.8751 53.6146 2.25
      vertex -30.65 40 2.25
      vertex -45.4788 53.9646 2.25
    endloop
  endfacet
  facet normal -0 0 1
    outer loop
      vertex -46.3256 53.323 2.25
      vertex -30.65 40 2.25
      vertex -45.8751 53.6146 2.25
    endloop
  endfacet
  facet normal -0 0 1
    outer loop
      vertex -46.8205 53.0934 2.25
      vertex -30.65 40 2.25
      vertex -46.3256 53.323 2.25
    endloop
  endfacet
  facet normal -0 0 1
    outer loop
      vertex -47.3501 52.9294 2.25
      vertex -30.65 40 2.25
      vertex -46.8205 53.0934 2.25
    endloop
  endfacet
  facet normal 0 0 1
    outer loop
      vertex -59 40 2.25
      vertex -47.3501 52.9294 2.25
      vertex -47.9145 52.8309 2.25
    endloop
  endfacet
  facet normal 0 0 1
    outer loop
      vertex -59 40 2.25
      vertex -47.9145 52.8309 2.25
      vertex -48.5136 52.7981 2.25
    endloop
  endfacet
  facet normal 0 0 1
    outer loop
      vertex -59 40 2.25
      vertex -48.5136 52.7981 2.25
      vertex -51.9924 52.7981 2.25
    endloop
  endfacet
  facet normal -0 0 1
    outer loop
      vertex -53.1593 56.4863 2.25
      vertex -51.9924 52.7981 2.25
      vertex -53.1261 57.1375 2.25
    endloop
  endfacet
  facet normal -0 0 1
    outer loop
      vertex -53.2589 55.8756 2.25
      vertex -51.9924 52.7981 2.25
      vertex -53.1593 56.4863 2.25
    endloop
  endfacet
  facet normal -0 0 1
    outer loop
      vertex -53.4248 55.3054 2.25
      vertex -51.9924 52.7981 2.25
      vertex -53.2589 55.8756 2.25
    endloop
  endfacet
  facet normal -0 0 1
    outer loop
      vertex -53.6571 54.7755 2.25
      vertex -51.9924 52.7981 2.25
      vertex -53.4248 55.3054 2.25
    endloop
  endfacet
  facet normal -0 0 1
    outer loop
      vertex -53.9512 54.2959 2.25
      vertex -51.9924 52.7981 2.25
      vertex -53.6571 54.7755 2.25
    endloop
  endfacet
  facet normal -0 0 1
    outer loop
      vertex -54.3025 53.8761 2.25
      vertex -51.9924 52.7981 2.25
      vertex -53.9512 54.2959 2.25
    endloop
  endfacet
  facet normal -0 0 1
    outer loop
      vertex -54.711 53.5162 2.25
      vertex -51.9924 52.7981 2.25
      vertex -54.3025 53.8761 2.25
    endloop
  endfacet
  facet normal -0 0 1
    outer loop
      vertex -55.1767 53.2162 2.25
      vertex -51.9924 52.7981 2.25
      vertex -54.711 53.5162 2.25
    endloop
  endfacet
  facet normal -0 0 1
    outer loop
      vertex -55.6917 52.9799 2.25
      vertex -51.9924 52.7981 2.25
      vertex -55.1767 53.2162 2.25
    endloop
  endfacet
  facet normal -0 0 1
    outer loop
      vertex -56.2478 52.8111 2.25
      vertex -51.9924 52.7981 2.25
      vertex -55.6917 52.9799 2.25
    endloop
  endfacet
  facet normal 0 0 1
    outer loop
      vertex -51.9924 52.7981 2.25
      vertex -56.2478 52.8111 2.25
      vertex -59 40 2.25
    endloop
  endfacet
  facet normal 0 0 1
    outer loop
      vertex -59 40 2.25
      vertex -56.2478 52.8111 2.25
      vertex -56.8452 52.7099 2.25
    endloop
  endfacet
  facet normal 0 0 1
    outer loop
      vertex -59 40 2.25
      vertex -56.8452 52.7099 2.25
      vertex -57.4837 52.6761 2.25
    endloop
  endfacet
  facet normal 0 0 1
    outer loop
      vertex -59 40 2.25
      vertex -57.4837 52.6761 2.25
      vertex -58.4421 52.7507 2.25
    endloop
  endfacet
  facet normal 0 0 1
    outer loop
      vertex -59 40 2.25
      vertex -58.4421 52.7507 2.25
      vertex -59 52.8977 2.25
    endloop
  endfacet
  facet normal 0 0 1
    outer loop
      vertex -47.3501 52.9294 2.25
      vertex -59 40 2.25
      vertex -30.65 40 2.25
    endloop
  endfacet
  facet normal 0 0 1
    outer loop
      vertex -59 59.6451 2.25
      vertex -54.9631 57.1375 2.25
      vertex -55.0043 57.7956 2.25
    endloop
  endfacet
  facet normal 0 0 1
    outer loop
      vertex -54.9631 57.1375 2.25
      vertex -59 54.593 2.25
      vertex -55.0041 56.4497 2.25
    endloop
  endfacet
  facet normal 0 0 1
    outer loop
      vertex -59 59.6451 2.25
      vertex -55.0043 57.7956 2.25
      vertex -55.1279 58.3787 2.25
    endloop
  endfacet
  facet normal 0 0 1
    outer loop
      vertex -55.0041 56.4497 2.25
      vertex -59 54.593 2.25
      vertex -55.1271 55.8452 2.25
    endloop
  endfacet
  facet normal 0 0 1
    outer loop
      vertex -57.4715 60.1096 2.25
      vertex -55.1279 58.3787 2.25
      vertex -55.3339 58.8865 2.25
    endloop
  endfacet
  facet normal 0 -0 1
    outer loop
      vertex -57.4837 54.092 2.25
      vertex -55.1271 55.8452 2.25
      vertex -59 54.593 2.25
    endloop
  endfacet
  facet normal 0 0 1
    outer loop
      vertex -56.9096 60.0602 2.25
      vertex -55.3339 58.8865 2.25
      vertex -55.6223 59.3192 2.25
    endloop
  endfacet
  facet normal 0 0 1
    outer loop
      vertex -55.1271 55.8452 2.25
      vertex -57.4837 54.092 2.25
      vertex -55.3322 55.3237 2.25
    endloop
  endfacet
  facet normal 0 0 1
    outer loop
      vertex -56.9096 60.0602 2.25
      vertex -55.6223 59.3192 2.25
      vertex -55.985 59.665 2.25
    endloop
  endfacet
  facet normal 0 -0 1
    outer loop
      vertex -56.914 54.1416 2.25
      vertex -55.3322 55.3237 2.25
      vertex -57.4837 54.092 2.25
    endloop
  endfacet
  facet normal 0 0 1
    outer loop
      vertex -56.9096 60.0602 2.25
      vertex -55.985 59.665 2.25
      vertex -56.4141 59.912 2.25
    endloop
  endfacet
  facet normal 0 0 1
    outer loop
      vertex -55.3339 58.8865 2.25
      vertex -56.9096 60.0602 2.25
      vertex -57.4715 60.1096 2.25
    endloop
  endfacet
  facet normal 0 0 1
    outer loop
      vertex -55.3322 55.3237 2.25
      vertex -56.914 54.1416 2.25
      vertex -55.6192 54.8854 2.25
    endloop
  endfacet
  facet normal 0 0 1
    outer loop
      vertex -55.1279 58.3787 2.25
      vertex -57.4715 60.1096 2.25
      vertex -59 59.6451 2.25
    endloop
  endfacet
  facet normal 0 0 1
    outer loop
      vertex -55.9818 54.5383 2.25
      vertex -56.914 54.1416 2.25
      vertex -56.4134 54.2903 2.25
    endloop
  endfacet
  facet normal 0 0 1
    outer loop
      vertex -55.6192 54.8854 2.25
      vertex -56.914 54.1416 2.25
      vertex -55.9818 54.5383 2.25
    endloop
  endfacet
  facet normal 0 0 1
    outer loop
      vertex -59 59.6451 2.25
      vertex -57.4715 60.1096 2.25
      vertex -58.0414 60.0606 2.25
    endloop
  endfacet
  facet normal 0 0 1
    outer loop
      vertex -57.4837 54.092 2.25
      vertex -59 54.593 2.25
      vertex -58.0359 54.1429 2.25
    endloop
  endfacet
  facet normal 0 0 1
    outer loop
      vertex -59 59.6451 2.25
      vertex -58.0414 60.0606 2.25
      vertex -58.5426 59.9136 2.25
    endloop
  endfacet
  facet normal 0 0 1
    outer loop
      vertex -58.0359 54.1429 2.25
      vertex -59 54.593 2.25
      vertex -58.5266 54.2957 2.25
    endloop
  endfacet
  facet normal 0 0 1
    outer loop
      vertex -59 59.6451 2.25
      vertex -58.5426 59.9136 2.25
      vertex -58.9752 59.6685 2.25
    endloop
  endfacet
  facet normal 0 0 1
    outer loop
      vertex -54.9631 57.1375 2.25
      vertex -59 59.6451 2.25
      vertex -59 54.593 2.25
    endloop
  endfacet
  facet normal 0 0 1
    outer loop
      vertex -58.5266 54.2957 2.25
      vertex -59 54.593 2.25
      vertex -58.9559 54.5503 2.25
    endloop
  endfacet
  facet normal 0 0 1
    outer loop
      vertex -48.9164 60.006 2.25
      vertex -46.1394 57.1618 2.25
      vertex -46.1844 57.8135 2.25
    endloop
  endfacet
  facet normal 0 -0 1
    outer loop
      vertex -48.6662 54.1896 2.25
      vertex -46.1394 57.1618 2.25
      vertex -48.9164 60.006 2.25
    endloop
  endfacet
  facet normal 0 0 1
    outer loop
      vertex -48.2866 59.9604 2.25
      vertex -46.1844 57.8135 2.25
      vertex -46.3194 58.3832 2.25
    endloop
  endfacet
  facet normal 0 0 1
    outer loop
      vertex -46.1394 57.1618 2.25
      vertex -48.6662 54.1896 2.25
      vertex -46.1821 56.5111 2.25
    endloop
  endfacet
  facet normal 0 0 1
    outer loop
      vertex -47.7339 59.8236 2.25
      vertex -46.3194 58.3832 2.25
      vertex -46.5445 58.8709 2.25
    endloop
  endfacet
  facet normal 0 0 1
    outer loop
      vertex -46.1821 56.5111 2.25
      vertex -48.6662 54.1896 2.25
      vertex -46.3103 55.9321 2.25
    endloop
  endfacet
  facet normal 0 0 1
    outer loop
      vertex -47.7339 59.8236 2.25
      vertex -46.5445 58.8709 2.25
      vertex -46.8596 59.2766 2.25
    endloop
  endfacet
  facet normal 0 0 1
    outer loop
      vertex -46.1844 57.8135 2.25
      vertex -48.2866 59.9604 2.25
      vertex -48.9164 60.006 2.25
    endloop
  endfacet
  facet normal 0 0 1
    outer loop
      vertex -47.7339 59.8236 2.25
      vertex -46.8596 59.2766 2.25
      vertex -47.2582 59.5957 2.25
    endloop
  endfacet
  facet normal 0 0 1
    outer loop
      vertex -46.5239 55.4247 2.25
      vertex -48.1161 54.2396 2.25
      vertex -46.823 54.9891 2.25
    endloop
  endfacet
  facet normal 0 0 1
    outer loop
      vertex -46.3194 58.3832 2.25
      vertex -47.7339 59.8236 2.25
      vertex -48.2866 59.9604 2.25
    endloop
  endfacet
  facet normal 0 0 1
    outer loop
      vertex -46.823 54.9891 2.25
      vertex -48.1161 54.2396 2.25
      vertex -47.1945 54.6393 2.25
    endloop
  endfacet
  facet normal 0 -0 1
    outer loop
      vertex -48.1161 54.2396 2.25
      vertex -46.5239 55.4247 2.25
      vertex -48.6662 54.1896 2.25
    endloop
  endfacet
  facet normal 0 0 1
    outer loop
      vertex -47.1945 54.6393 2.25
      vertex -48.1161 54.2396 2.25
      vertex -47.6255 54.3895 2.25
    endloop
  endfacet
  facet normal 0 0 1
    outer loop
      vertex -46.3103 55.9321 2.25
      vertex -48.6662 54.1896 2.25
      vertex -46.5239 55.4247 2.25
    endloop
  endfacet
  facet normal 0 0 1
    outer loop
      vertex -50.1919 54.1896 2.25
      vertex -48.9164 60.006 2.25
      vertex -50.1919 60.006 2.25
    endloop
  endfacet
  facet normal 0 0 1
    outer loop
      vertex -48.9164 60.006 2.25
      vertex -50.1919 54.1896 2.25
      vertex -48.6662 54.1896 2.25
    endloop
  endfacet
  facet normal 0 0 -1
    outer loop
      vertex -59 40 0
      vertex -30.65 74 0
      vertex -30.65 40 0
    endloop
  endfacet
  facet normal -0 0 -1
    outer loop
      vertex -30.65 74 0
      vertex -59 40 0
      vertex -59 74 0
    endloop
  endfacet
  facet normal 0 0 -1
    outer loop
      vertex -30.65 40 0
      vertex -27.35 38 0
      vertex -30.65 38 0
    endloop
  endfacet
  facet normal 0 0 -1
    outer loop
      vertex -27.35 38 0
      vertex -30.65 40 0
      vertex -27.35 76 0
    endloop
  endfacet
  facet normal 0 0 -1
    outer loop
      vertex -30.65 74 0
      vertex -27.35 76 0
      vertex -30.65 40 0
    endloop
  endfacet
  facet normal -0 0 -1
    outer loop
      vertex -27.35 76 0
      vertex -30.65 74 0
      vertex -30.65 76 0
    endloop
  endfacet
  facet normal 0 1 -0
    outer loop
      vertex -30.65 74 0
      vertex -59 74 2.25
      vertex -30.65 74 2.25
    endloop
  endfacet
  facet normal 0 1 0
    outer loop
      vertex -59 74 2.25
      vertex -30.65 74 0
      vertex -59 74 0
    endloop
  endfacet
  facet normal 0 -1 0
    outer loop
      vertex -59 40 0
      vertex -30.65 40 2.25
      vertex -59 40 2.25
    endloop
  endfacet
  facet normal 0 -1 -0
    outer loop
      vertex -30.65 40 2.25
      vertex -59 40 0
      vertex -30.65 40 0
    endloop
  endfacet
  facet normal 1 -0 0
    outer loop
      vertex -27.35 38 5
      vertex -27.35 76 0
      vertex -27.35 76 5
    endloop
  endfacet
  facet normal 1 0 0
    outer loop
      vertex -27.35 76 0
      vertex -27.35 38 5
      vertex -27.35 38 0
    endloop
  endfacet
  facet normal -0 0 1
    outer loop
      vertex -30.65 76 5
      vertex -27.35 38 5
      vertex -27.35 76 5
    endloop
  endfacet
  facet normal 0 0 1
    outer loop
      vertex -27.35 38 5
      vertex -30.65 76 5
      vertex -30.65 38 5
    endloop
  endfacet
  facet normal 0 1 -0
    outer loop
      vertex -27.35 76 0
      vertex -30.65 76 5
      vertex -27.35 76 5
    endloop
  endfacet
  facet normal 0 1 0
    outer loop
      vertex -30.65 76 5
      vertex -27.35 76 0
      vertex -30.65 76 0
    endloop
  endfacet
  facet normal 0 -1 0
    outer loop
      vertex -30.65 38 0
      vertex -27.35 38 5
      vertex -30.65 38 5
    endloop
  endfacet
  facet normal 0 -1 -0
    outer loop
      vertex -27.35 38 5
      vertex -30.65 38 0
      vertex -27.35 38 0
    endloop
  endfacet
  facet normal 0 0 1
    outer loop
      vertex -53.1261 57.1375 2.8
      vertex -55.0043 57.7956 2.8
      vertex -54.9631 57.1375 2.8
    endloop
  endfacet
  facet normal 0 0 1
    outer loop
      vertex -54.2766 60.3538 2.8
      vertex -55.1279 58.3787 2.8
      vertex -55.0043 57.7956 2.8
    endloop
  endfacet
  facet normal 0 0 1
    outer loop
      vertex -54.2766 60.3538 2.8
      vertex -55.3339 58.8865 2.8
      vertex -55.1279 58.3787 2.8
    endloop
  endfacet
  facet normal 0 0 1
    outer loop
      vertex -54.2766 60.3538 2.8
      vertex -55.6223 59.3192 2.8
      vertex -55.3339 58.8865 2.8
    endloop
  endfacet
  facet normal 0 0 1
    outer loop
      vertex -55.985 59.665 2.8
      vertex -54.9076 60.8665 2.8
      vertex -55.6505 61.2327 2.8
    endloop
  endfacet
  facet normal 0 0 1
    outer loop
      vertex -54.9076 60.8665 2.8
      vertex -55.985 59.665 2.8
      vertex -55.6223 59.3192 2.8
    endloop
  endfacet
  facet normal 0 0 1
    outer loop
      vertex -55.6505 61.2327 2.8
      vertex -56.4141 59.912 2.8
      vertex -55.985 59.665 2.8
    endloop
  endfacet
  facet normal 0 0 1
    outer loop
      vertex -56.5051 61.4524 2.8
      vertex -56.4141 59.912 2.8
      vertex -55.6505 61.2327 2.8
    endloop
  endfacet
  facet normal 0 0 1
    outer loop
      vertex -56.5051 61.4524 2.8
      vertex -56.9096 60.0602 2.8
      vertex -56.4141 59.912 2.8
    endloop
  endfacet
  facet normal 0 0 1
    outer loop
      vertex -57.4715 61.5256 2.8
      vertex -56.9096 60.0602 2.8
      vertex -56.5051 61.4524 2.8
    endloop
  endfacet
  facet normal 0 0 1
    outer loop
      vertex -57.4715 61.5256 2.8
      vertex -57.4715 60.1096 2.8
      vertex -56.9096 60.0602 2.8
    endloop
  endfacet
  facet normal 0 0 1
    outer loop
      vertex -57.4715 61.5256 2.8
      vertex -58.0414 60.0606 2.8
      vertex -57.4715 60.1096 2.8
    endloop
  endfacet
  facet normal -0 0 1
    outer loop
      vertex -58.4377 61.4531 2.8
      vertex -58.0414 60.0606 2.8
      vertex -57.4715 61.5256 2.8
    endloop
  endfacet
  facet normal 0 0 1
    outer loop
      vertex -58.4377 61.4531 2.8
      vertex -58.5426 59.9136 2.8
      vertex -58.0414 60.0606 2.8
    endloop
  endfacet
  facet normal -0 0 1
    outer loop
      vertex -59 61.31 2.8
      vertex -58.5426 59.9136 2.8
      vertex -58.4377 61.4531 2.8
    endloop
  endfacet
  facet normal 0 0 1
    outer loop
      vertex -58.5426 59.9136 2.8
      vertex -59 61.31 2.8
      vertex -58.9752 59.6685 2.8
    endloop
  endfacet
  facet normal 0 0 1
    outer loop
      vertex -58.9752 59.6685 2.8
      vertex -59 61.31 2.8
      vertex -59 59.6451 2.8
    endloop
  endfacet
  facet normal -0 0 1
    outer loop
      vertex -55.0043 57.7956 2.8
      vertex -53.1261 57.1375 2.8
      vertex -53.198 58.1052 2.8
    endloop
  endfacet
  facet normal 0 0 1
    outer loop
      vertex -53.1261 57.1375 2.8
      vertex -54.9631 57.1375 2.8
      vertex -53.1593 56.4863 2.8
    endloop
  endfacet
  facet normal 0 0 1
    outer loop
      vertex -55.0043 57.7956 2.8
      vertex -53.198 58.1052 2.8
      vertex -53.4137 58.9638 2.8
    endloop
  endfacet
  facet normal 0 0 1
    outer loop
      vertex -55.0041 56.4497 2.8
      vertex -53.1593 56.4863 2.8
      vertex -54.9631 57.1375 2.8
    endloop
  endfacet
  facet normal 0 0 1
    outer loop
      vertex -53.1593 56.4863 2.8
      vertex -55.0041 56.4497 2.8
      vertex -53.2589 55.8756 2.8
    endloop
  endfacet
  facet normal 0 0 1
    outer loop
      vertex -55.0043 57.7956 2.8
      vertex -53.4137 58.9638 2.8
      vertex -53.7732 59.7133 2.8
    endloop
  endfacet
  facet normal 0 0 1
    outer loop
      vertex -55.1271 55.8452 2.8
      vertex -53.2589 55.8756 2.8
      vertex -55.0041 56.4497 2.8
    endloop
  endfacet
  facet normal 0 0 1
    outer loop
      vertex -55.0043 57.7956 2.8
      vertex -53.7732 59.7133 2.8
      vertex -54.2766 60.3538 2.8
    endloop
  endfacet
  facet normal 0 0 1
    outer loop
      vertex -53.2589 55.8756 2.8
      vertex -55.1271 55.8452 2.8
      vertex -53.4248 55.3054 2.8
    endloop
  endfacet
  facet normal 0 0 1
    outer loop
      vertex -53.4248 55.3054 2.8
      vertex -55.1271 55.8452 2.8
      vertex -53.6571 54.7755 2.8
    endloop
  endfacet
  facet normal 0 0 1
    outer loop
      vertex -55.6223 59.3192 2.8
      vertex -54.2766 60.3538 2.8
      vertex -54.9076 60.8665 2.8
    endloop
  endfacet
  facet normal -0 0 1
    outer loop
      vertex -55.3322 55.3237 2.8
      vertex -53.6571 54.7755 2.8
      vertex -55.1271 55.8452 2.8
    endloop
  endfacet
  facet normal 0 0 1
    outer loop
      vertex -53.6571 54.7755 2.8
      vertex -55.3322 55.3237 2.8
      vertex -53.9512 54.2959 2.8
    endloop
  endfacet
  facet normal -0 0 1
    outer loop
      vertex -55.6192 54.8854 2.8
      vertex -53.9512 54.2959 2.8
      vertex -55.3322 55.3237 2.8
    endloop
  endfacet
  facet normal 0 0 1
    outer loop
      vertex -53.9512 54.2959 2.8
      vertex -55.6192 54.8854 2.8
      vertex -54.3025 53.8761 2.8
    endloop
  endfacet
  facet normal 0 0 1
    outer loop
      vertex -54.3025 53.8761 2.8
      vertex -55.6192 54.8854 2.8
      vertex -54.711 53.5162 2.8
    endloop
  endfacet
  facet normal -0 0 1
    outer loop
      vertex -55.9818 54.5383 2.8
      vertex -54.711 53.5162 2.8
      vertex -55.6192 54.8854 2.8
    endloop
  endfacet
  facet normal 0 0 1
    outer loop
      vertex -54.711 53.5162 2.8
      vertex -55.9818 54.5383 2.8
      vertex -55.1767 53.2162 2.8
    endloop
  endfacet
  facet normal 0 0 1
    outer loop
      vertex -55.1767 53.2162 2.8
      vertex -55.9818 54.5383 2.8
      vertex -55.6917 52.9799 2.8
    endloop
  endfacet
  facet normal -0 0 1
    outer loop
      vertex -56.4134 54.2903 2.8
      vertex -55.6917 52.9799 2.8
      vertex -55.9818 54.5383 2.8
    endloop
  endfacet
  facet normal 0 0 1
    outer loop
      vertex -55.6917 52.9799 2.8
      vertex -56.4134 54.2903 2.8
      vertex -56.2478 52.8111 2.8
    endloop
  endfacet
  facet normal -0 0 1
    outer loop
      vertex -56.914 54.1416 2.8
      vertex -56.2478 52.8111 2.8
      vertex -56.4134 54.2903 2.8
    endloop
  endfacet
  facet normal 0 0 1
    outer loop
      vertex -56.2478 52.8111 2.8
      vertex -56.914 54.1416 2.8
      vertex -56.8452 52.7099 2.8
    endloop
  endfacet
  facet normal -0 0 1
    outer loop
      vertex -57.4837 54.092 2.8
      vertex -56.8452 52.7099 2.8
      vertex -56.914 54.1416 2.8
    endloop
  endfacet
  facet normal 0 0 1
    outer loop
      vertex -57.4837 54.092 2.8
      vertex -57.4837 52.6761 2.8
      vertex -56.8452 52.7099 2.8
    endloop
  endfacet
  facet normal 0 0 1
    outer loop
      vertex -58.0359 54.1429 2.8
      vertex -57.4837 52.6761 2.8
      vertex -57.4837 54.092 2.8
    endloop
  endfacet
  facet normal 0 0 1
    outer loop
      vertex -58.0359 54.1429 2.8
      vertex -58.4421 52.7507 2.8
      vertex -57.4837 52.6761 2.8
    endloop
  endfacet
  facet normal 0 0 1
    outer loop
      vertex -58.5266 54.2957 2.8
      vertex -58.4421 52.7507 2.8
      vertex -58.0359 54.1429 2.8
    endloop
  endfacet
  facet normal 0 0 1
    outer loop
      vertex -59 52.8977 2.8
      vertex -58.5266 54.2957 2.8
      vertex -58.9559 54.5503 2.8
    endloop
  endfacet
  facet normal 0 0 1
    outer loop
      vertex -59 52.8977 2.8
      vertex -58.9559 54.5503 2.8
      vertex -59 54.593 2.8
    endloop
  endfacet
  facet normal 0 0 1
    outer loop
      vertex -58.5266 54.2957 2.8
      vertex -59 52.8977 2.8
      vertex -58.4421 52.7507 2.8
    endloop
  endfacet
  facet normal -0 0 1
    outer loop
      vertex -46.1844 57.8135 2.8
      vertex -44.3268 57.1618 2.8
      vertex -44.4012 58.1248 2.8
    endloop
  endfacet
  facet normal 0 0 1
    outer loop
      vertex -44.3268 57.1618 2.8
      vertex -46.1394 57.1618 2.8
      vertex -44.3594 56.5178 2.8
    endloop
  endfacet
  facet normal 0 0 1
    outer loop
      vertex -46.1821 56.5111 2.8
      vertex -44.3594 56.5178 2.8
      vertex -46.1394 57.1618 2.8
    endloop
  endfacet
  facet normal -0 0 1
    outer loop
      vertex -46.3194 58.3832 2.8
      vertex -44.4012 58.1248 2.8
      vertex -44.6243 58.9691 2.8
    endloop
  endfacet
  facet normal 0 0 1
    outer loop
      vertex -44.3594 56.5178 2.8
      vertex -46.1821 56.5111 2.8
      vertex -44.4573 55.9161 2.8
    endloop
  endfacet
  facet normal 0 0 1
    outer loop
      vertex -46.3194 58.3832 2.8
      vertex -44.6243 58.9691 2.8
      vertex -44.9963 59.6948 2.8
    endloop
  endfacet
  facet normal -0 0 1
    outer loop
      vertex -46.3103 55.9321 2.8
      vertex -44.4573 55.9161 2.8
      vertex -46.1821 56.5111 2.8
    endloop
  endfacet
  facet normal 0 0 1
    outer loop
      vertex -44.4573 55.9161 2.8
      vertex -46.3103 55.9321 2.8
      vertex -44.6203 55.3567 2.8
    endloop
  endfacet
  facet normal 0 0 1
    outer loop
      vertex -46.5445 58.8709 2.8
      vertex -44.9963 59.6948 2.8
      vertex -45.517 60.3019 2.8
    endloop
  endfacet
  facet normal 0 0 1
    outer loop
      vertex -44.6203 55.3567 2.8
      vertex -46.3103 55.9321 2.8
      vertex -44.8486 54.8396 2.8
    endloop
  endfacet
  facet normal -0 0 1
    outer loop
      vertex -46.5239 55.4247 2.8
      vertex -44.8486 54.8396 2.8
      vertex -46.3103 55.9321 2.8
    endloop
  endfacet
  facet normal 0 0 1
    outer loop
      vertex -46.8596 59.2766 2.8
      vertex -45.517 60.3019 2.8
      vertex -46.1734 60.7812 2.8
    endloop
  endfacet
  facet normal 0 0 1
    outer loop
      vertex -44.3268 57.1618 2.8
      vertex -46.1844 57.8135 2.8
      vertex -46.1394 57.1618 2.8
    endloop
  endfacet
  facet normal 0 0 1
    outer loop
      vertex -44.4012 58.1248 2.8
      vertex -46.3194 58.3832 2.8
      vertex -46.1844 57.8135 2.8
    endloop
  endfacet
  facet normal 0 0 1
    outer loop
      vertex -44.9963 59.6948 2.8
      vertex -46.5445 58.8709 2.8
      vertex -46.3194 58.3832 2.8
    endloop
  endfacet
  facet normal 0 0 1
    outer loop
      vertex -45.517 60.3019 2.8
      vertex -46.8596 59.2766 2.8
      vertex -46.5445 58.8709 2.8
    endloop
  endfacet
  facet normal 0 0 1
    outer loop
      vertex -47.2582 59.5957 2.8
      vertex -46.1734 60.7812 2.8
      vertex -46.9527 61.1236 2.8
    endloop
  endfacet
  facet normal 0 0 1
    outer loop
      vertex -46.1734 60.7812 2.8
      vertex -47.2582 59.5957 2.8
      vertex -46.8596 59.2766 2.8
    endloop
  endfacet
  facet normal 0 0 1
    outer loop
      vertex -46.9527 61.1236 2.8
      vertex -47.7339 59.8236 2.8
      vertex -47.2582 59.5957 2.8
    endloop
  endfacet
  facet normal 0 0 1
    outer loop
      vertex -47.8548 61.329 2.8
      vertex -47.7339 59.8236 2.8
      vertex -46.9527 61.1236 2.8
    endloop
  endfacet
  facet normal 0 0 1
    outer loop
      vertex -47.8548 61.329 2.8
      vertex -48.2866 59.9604 2.8
      vertex -47.7339 59.8236 2.8
    endloop
  endfacet
  facet normal 0 0 1
    outer loop
      vertex -48.8797 61.3974 2.8
      vertex -48.2866 59.9604 2.8
      vertex -47.8548 61.329 2.8
    endloop
  endfacet
  facet normal 0 0 1
    outer loop
      vertex -48.8797 61.3974 2.8
      vertex -48.9164 60.006 2.8
      vertex -48.2866 59.9604 2.8
    endloop
  endfacet
  facet normal 0 0 1
    outer loop
      vertex -48.8797 61.3974 2.8
      vertex -50.1919 60.006 2.8
      vertex -48.9164 60.006 2.8
    endloop
  endfacet
  facet normal 0 0 1
    outer loop
      vertex -50.1919 60.006 2.8
      vertex -51.9924 61.3974 2.8
      vertex -50.1919 54.1896 2.8
    endloop
  endfacet
  facet normal -0 0 1
    outer loop
      vertex -51.9924 61.3974 2.8
      vertex -50.1919 60.006 2.8
      vertex -48.8797 61.3974 2.8
    endloop
  endfacet
  facet normal 0 0 1
    outer loop
      vertex -44.8486 54.8396 2.8
      vertex -46.5239 55.4247 2.8
      vertex -45.1366 54.3729 2.8
    endloop
  endfacet
  facet normal 0 0 1
    outer loop
      vertex -45.1366 54.3729 2.8
      vertex -46.5239 55.4247 2.8
      vertex -45.4788 53.9646 2.8
    endloop
  endfacet
  facet normal -0 0 1
    outer loop
      vertex -46.823 54.9891 2.8
      vertex -45.4788 53.9646 2.8
      vertex -46.5239 55.4247 2.8
    endloop
  endfacet
  facet normal 0 0 1
    outer loop
      vertex -45.4788 53.9646 2.8
      vertex -46.823 54.9891 2.8
      vertex -45.8751 53.6146 2.8
    endloop
  endfacet
  facet normal -0 0 1
    outer loop
      vertex -47.1945 54.6393 2.8
      vertex -45.8751 53.6146 2.8
      vertex -46.823 54.9891 2.8
    endloop
  endfacet
  facet normal 0 0 1
    outer loop
      vertex -45.8751 53.6146 2.8
      vertex -47.1945 54.6393 2.8
      vertex -46.3256 53.323 2.8
    endloop
  endfacet
  facet normal 0 0 1
    outer loop
      vertex -46.3256 53.323 2.8
      vertex -47.1945 54.6393 2.8
      vertex -46.8205 53.0934 2.8
    endloop
  endfacet
  facet normal -0 0 1
    outer loop
      vertex -47.6255 54.3895 2.8
      vertex -46.8205 53.0934 2.8
      vertex -47.1945 54.6393 2.8
    endloop
  endfacet
  facet normal 0 0 1
    outer loop
      vertex -46.8205 53.0934 2.8
      vertex -47.6255 54.3895 2.8
      vertex -47.3501 52.9294 2.8
    endloop
  endfacet
  facet normal -0 0 1
    outer loop
      vertex -48.1161 54.2396 2.8
      vertex -47.3501 52.9294 2.8
      vertex -47.6255 54.3895 2.8
    endloop
  endfacet
  facet normal 0 0 1
    outer loop
      vertex -47.3501 52.9294 2.8
      vertex -48.1161 54.2396 2.8
      vertex -47.9145 52.8309 2.8
    endloop
  endfacet
  facet normal 0 0 1
    outer loop
      vertex -48.1161 54.2396 2.8
      vertex -48.5136 52.7981 2.8
      vertex -47.9145 52.8309 2.8
    endloop
  endfacet
  facet normal -0 0 1
    outer loop
      vertex -48.6662 54.1896 2.8
      vertex -48.5136 52.7981 2.8
      vertex -48.1161 54.2396 2.8
    endloop
  endfacet
  facet normal -0 0 1
    outer loop
      vertex -50.1919 54.1896 2.8
      vertex -48.5136 52.7981 2.8
      vertex -48.6662 54.1896 2.8
    endloop
  endfacet
  facet normal 0 0 1
    outer loop
      vertex -50.1919 54.1896 2.8
      vertex -51.9924 52.7981 2.8
      vertex -48.5136 52.7981 2.8
    endloop
  endfacet
  facet normal 0 0 1
    outer loop
      vertex -51.9924 52.7981 2.8
      vertex -50.1919 54.1896 2.8
      vertex -51.9924 61.3974 2.8
    endloop
  endfacet
  facet normal 0.167021 -0.985953 0
    outer loop
      vertex -56.8452 52.7099 2.25
      vertex -56.2478 52.8111 2.8
      vertex -56.8452 52.7099 2.8
    endloop
  endfacet
  facet normal 0.167021 -0.985953 0
    outer loop
      vertex -56.2478 52.8111 2.8
      vertex -56.8452 52.7099 2.25
      vertex -56.2478 52.8111 2.25
    endloop
  endfacet
  facet normal 0.290456 -0.956888 0
    outer loop
      vertex -56.2478 52.8111 2.25
      vertex -55.6917 52.9799 2.8
      vertex -56.2478 52.8111 2.8
    endloop
  endfacet
  facet normal 0.290456 -0.956888 0
    outer loop
      vertex -55.6917 52.9799 2.8
      vertex -56.2478 52.8111 2.25
      vertex -55.6917 52.9799 2.25
    endloop
  endfacet
  facet normal 0.417031 -0.908892 0
    outer loop
      vertex -55.6917 52.9799 2.25
      vertex -55.1767 53.2162 2.8
      vertex -55.6917 52.9799 2.8
    endloop
  endfacet
  facet normal 0.417031 -0.908892 0
    outer loop
      vertex -55.1767 53.2162 2.8
      vertex -55.6917 52.9799 2.25
      vertex -55.1767 53.2162 2.25
    endloop
  endfacet
  facet normal 0.541551 -0.840668 0
    outer loop
      vertex -55.1767 53.2162 2.25
      vertex -54.711 53.5162 2.8
      vertex -55.1767 53.2162 2.8
    endloop
  endfacet
  facet normal 0.541551 -0.840668 0
    outer loop
      vertex -54.711 53.5162 2.8
      vertex -55.1767 53.2162 2.25
      vertex -54.711 53.5162 2.25
    endloop
  endfacet
  facet normal 0.661063 -0.750331 0
    outer loop
      vertex -54.711 53.5162 2.25
      vertex -54.3025 53.8761 2.8
      vertex -54.711 53.5162 2.8
    endloop
  endfacet
  facet normal 0.661063 -0.750331 0
    outer loop
      vertex -54.3025 53.8761 2.8
      vertex -54.711 53.5162 2.25
      vertex -54.3025 53.8761 2.25
    endloop
  endfacet
  facet normal 0.766902 -0.641764 0
    outer loop
      vertex -54.3025 53.8761 2.8
      vertex -53.9512 54.2959 2.25
      vertex -53.9512 54.2959 2.8
    endloop
  endfacet
  facet normal 0.766902 -0.641764 0
    outer loop
      vertex -53.9512 54.2959 2.25
      vertex -54.3025 53.8761 2.8
      vertex -54.3025 53.8761 2.25
    endloop
  endfacet
  facet normal 0.852481 -0.522758 0
    outer loop
      vertex -53.9512 54.2959 2.8
      vertex -53.6571 54.7755 2.25
      vertex -53.6571 54.7755 2.8
    endloop
  endfacet
  facet normal 0.852481 -0.522758 0
    outer loop
      vertex -53.6571 54.7755 2.25
      vertex -53.9512 54.2959 2.8
      vertex -53.9512 54.2959 2.25
    endloop
  endfacet
  facet normal 0.91586 -0.401499 0
    outer loop
      vertex -53.6571 54.7755 2.8
      vertex -53.4248 55.3054 2.25
      vertex -53.4248 55.3054 2.8
    endloop
  endfacet
  facet normal 0.91586 -0.401499 0
    outer loop
      vertex -53.4248 55.3054 2.25
      vertex -53.6571 54.7755 2.8
      vertex -53.6571 54.7755 2.25
    endloop
  endfacet
  facet normal 0.960185 -0.279366 0
    outer loop
      vertex -53.4248 55.3054 2.8
      vertex -53.2589 55.8756 2.25
      vertex -53.2589 55.8756 2.8
    endloop
  endfacet
  facet normal 0.960185 -0.279366 0
    outer loop
      vertex -53.2589 55.8756 2.25
      vertex -53.4248 55.3054 2.8
      vertex -53.4248 55.3054 2.25
    endloop
  endfacet
  facet normal 0.98696 -0.160965 0
    outer loop
      vertex -53.2589 55.8756 2.8
      vertex -53.1593 56.4863 2.25
      vertex -53.1593 56.4863 2.8
    endloop
  endfacet
  facet normal 0.98696 -0.160965 0
    outer loop
      vertex -53.1593 56.4863 2.25
      vertex -53.2589 55.8756 2.8
      vertex -53.2589 55.8756 2.25
    endloop
  endfacet
  facet normal 0.998703 -0.0509167 0
    outer loop
      vertex -53.1593 56.4863 2.8
      vertex -53.1261 57.1375 2.25
      vertex -53.1261 57.1375 2.8
    endloop
  endfacet
  facet normal 0.998703 -0.0509167 0
    outer loop
      vertex -53.1261 57.1375 2.25
      vertex -53.1593 56.4863 2.8
      vertex -53.1593 56.4863 2.25
    endloop
  endfacet
  facet normal 0.997251 0.0740956 0
    outer loop
      vertex -53.1261 57.1375 2.8
      vertex -53.198 58.1052 2.25
      vertex -53.198 58.1052 2.8
    endloop
  endfacet
  facet normal 0.997251 0.0740956 0
    outer loop
      vertex -53.198 58.1052 2.25
      vertex -53.1261 57.1375 2.8
      vertex -53.1261 57.1375 2.25
    endloop
  endfacet
  facet normal 0.969863 0.243652 0
    outer loop
      vertex -53.198 58.1052 2.8
      vertex -53.4137 58.9638 2.25
      vertex -53.4137 58.9638 2.8
    endloop
  endfacet
  facet normal 0.969863 0.243652 0
    outer loop
      vertex -53.4137 58.9638 2.25
      vertex -53.198 58.1052 2.8
      vertex -53.198 58.1052 2.25
    endloop
  endfacet
  facet normal 0.901645 0.432477 0
    outer loop
      vertex -53.4137 58.9638 2.8
      vertex -53.7732 59.7133 2.25
      vertex -53.7732 59.7133 2.8
    endloop
  endfacet
  facet normal 0.901645 0.432477 0
    outer loop
      vertex -53.7732 59.7133 2.25
      vertex -53.4137 58.9638 2.8
      vertex -53.4137 58.9638 2.25
    endloop
  endfacet
  facet normal 0.786229 0.617935 0
    outer loop
      vertex -53.7732 59.7133 2.8
      vertex -54.2766 60.3538 2.25
      vertex -54.2766 60.3538 2.8
    endloop
  endfacet
  facet normal 0.786229 0.617935 0
    outer loop
      vertex -54.2766 60.3538 2.25
      vertex -53.7732 59.7133 2.8
      vertex -53.7732 59.7133 2.25
    endloop
  endfacet
  facet normal 0.630602 0.776106 -0
    outer loop
      vertex -54.2766 60.3538 2.25
      vertex -54.9076 60.8665 2.8
      vertex -54.2766 60.3538 2.8
    endloop
  endfacet
  facet normal 0.630602 0.776106 0
    outer loop
      vertex -54.9076 60.8665 2.8
      vertex -54.2766 60.3538 2.25
      vertex -54.9076 60.8665 2.25
    endloop
  endfacet
  facet normal 0.442135 0.896948 -0
    outer loop
      vertex -54.9076 60.8665 2.25
      vertex -55.6505 61.2327 2.8
      vertex -54.9076 60.8665 2.8
    endloop
  endfacet
  facet normal 0.442135 0.896948 0
    outer loop
      vertex -55.6505 61.2327 2.8
      vertex -54.9076 60.8665 2.25
      vertex -55.6505 61.2327 2.25
    endloop
  endfacet
  facet normal 0.248983 0.968508 -0
    outer loop
      vertex -55.6505 61.2327 2.25
      vertex -56.5051 61.4524 2.8
      vertex -55.6505 61.2327 2.8
    endloop
  endfacet
  facet normal 0.248983 0.968508 0
    outer loop
      vertex -56.5051 61.4524 2.8
      vertex -55.6505 61.2327 2.25
      vertex -56.5051 61.4524 2.25
    endloop
  endfacet
  facet normal 0.0755287 0.997144 -0
    outer loop
      vertex -56.5051 61.4524 2.25
      vertex -57.4715 61.5256 2.8
      vertex -56.5051 61.4524 2.8
    endloop
  endfacet
  facet normal 0.0755287 0.997144 0
    outer loop
      vertex -57.4715 61.5256 2.8
      vertex -56.5051 61.4524 2.25
      vertex -57.4715 61.5256 2.25
    endloop
  endfacet
  facet normal -0.0748259 0.997197 0
    outer loop
      vertex -57.4715 61.5256 2.25
      vertex -58.4377 61.4531 2.8
      vertex -57.4715 61.5256 2.8
    endloop
  endfacet
  facet normal -0.0748259 0.997197 0
    outer loop
      vertex -58.4377 61.4531 2.8
      vertex -57.4715 61.5256 2.25
      vertex -58.4377 61.4531 2.25
    endloop
  endfacet
  facet normal -0.246629 0.96911 0
    outer loop
      vertex -58.4377 61.4531 2.25
      vertex -59 61.31 2.8
      vertex -58.4377 61.4531 2.8
    endloop
  endfacet
  facet normal -0.246629 0.96911 0
    outer loop
      vertex -59 61.31 2.8
      vertex -58.4377 61.4531 2.25
      vertex -59 61.31 2.25
    endloop
  endfacet
  facet normal -0.254792 -0.966996 0
    outer loop
      vertex -59 52.8977 2.25
      vertex -58.4421 52.7507 2.8
      vertex -59 52.8977 2.8
    endloop
  endfacet
  facet normal -0.254792 -0.966996 -0
    outer loop
      vertex -58.4421 52.7507 2.8
      vertex -59 52.8977 2.25
      vertex -58.4421 52.7507 2.25
    endloop
  endfacet
  facet normal -0.0776033 -0.996984 0
    outer loop
      vertex -58.4421 52.7507 2.25
      vertex -57.4837 52.6761 2.8
      vertex -58.4421 52.7507 2.8
    endloop
  endfacet
  facet normal -0.0776033 -0.996984 -0
    outer loop
      vertex -57.4837 52.6761 2.8
      vertex -58.4421 52.7507 2.25
      vertex -57.4837 52.6761 2.25
    endloop
  endfacet
  facet normal 0.0528626 -0.998602 0
    outer loop
      vertex -57.4837 52.6761 2.25
      vertex -56.8452 52.7099 2.8
      vertex -57.4837 52.6761 2.8
    endloop
  endfacet
  facet normal 0.0528626 -0.998602 0
    outer loop
      vertex -56.8452 52.7099 2.8
      vertex -57.4837 52.6761 2.25
      vertex -56.8452 52.7099 2.25
    endloop
  endfacet
  facet normal 0.297311 0.954781 -0
    outer loop
      vertex -58.0359 54.1429 2.25
      vertex -58.5266 54.2957 2.8
      vertex -58.0359 54.1429 2.8
    endloop
  endfacet
  facet normal 0.297311 0.954781 0
    outer loop
      vertex -58.5266 54.2957 2.8
      vertex -58.0359 54.1429 2.25
      vertex -58.5266 54.2957 2.25
    endloop
  endfacet
  facet normal 0.510099 0.860116 -0
    outer loop
      vertex -58.5266 54.2957 2.25
      vertex -58.9559 54.5503 2.8
      vertex -58.5266 54.2957 2.8
    endloop
  endfacet
  facet normal 0.510099 0.860116 0
    outer loop
      vertex -58.9559 54.5503 2.8
      vertex -58.5266 54.2957 2.25
      vertex -58.9559 54.5503 2.25
    endloop
  endfacet
  facet normal 0.695611 0.718418 -0
    outer loop
      vertex -58.9559 54.5503 2.25
      vertex -59 54.593 2.8
      vertex -58.9559 54.5503 2.8
    endloop
  endfacet
  facet normal 0.695611 0.718418 0
    outer loop
      vertex -59 54.593 2.8
      vertex -58.9559 54.5503 2.25
      vertex -59 54.593 2.25
    endloop
  endfacet
  facet normal 0.686279 -0.727338 0
    outer loop
      vertex -59 59.6451 2.25
      vertex -58.9752 59.6685 2.8
      vertex -59 59.6451 2.8
    endloop
  endfacet
  facet normal 0.686279 -0.727338 0
    outer loop
      vertex -58.9752 59.6685 2.8
      vertex -59 59.6451 2.25
      vertex -58.9752 59.6685 2.25
    endloop
  endfacet
  facet normal 0.492952 -0.870057 0
    outer loop
      vertex -58.9752 59.6685 2.25
      vertex -58.5426 59.9136 2.8
      vertex -58.9752 59.6685 2.8
    endloop
  endfacet
  facet normal 0.492952 -0.870057 0
    outer loop
      vertex -58.5426 59.9136 2.8
      vertex -58.9752 59.6685 2.25
      vertex -58.5426 59.9136 2.25
    endloop
  endfacet
  facet normal 0.281441 -0.959579 0
    outer loop
      vertex -58.5426 59.9136 2.25
      vertex -58.0414 60.0606 2.8
      vertex -58.5426 59.9136 2.8
    endloop
  endfacet
  facet normal 0.281441 -0.959579 0
    outer loop
      vertex -58.0414 60.0606 2.8
      vertex -58.5426 59.9136 2.25
      vertex -58.0414 60.0606 2.25
    endloop
  endfacet
  facet normal 0.0856639 -0.996324 0
    outer loop
      vertex -58.0414 60.0606 2.25
      vertex -57.4715 60.1096 2.8
      vertex -58.0414 60.0606 2.8
    endloop
  endfacet
  facet normal 0.0856639 -0.996324 0
    outer loop
      vertex -57.4715 60.1096 2.8
      vertex -58.0414 60.0606 2.25
      vertex -57.4715 60.1096 2.25
    endloop
  endfacet
  facet normal -0.0875782 -0.996158 0
    outer loop
      vertex -57.4715 60.1096 2.25
      vertex -56.9096 60.0602 2.8
      vertex -57.4715 60.1096 2.8
    endloop
  endfacet
  facet normal -0.0875782 -0.996158 -0
    outer loop
      vertex -56.9096 60.0602 2.8
      vertex -57.4715 60.1096 2.25
      vertex -56.9096 60.0602 2.25
    endloop
  endfacet
  facet normal -0.28655 -0.958065 0
    outer loop
      vertex -56.9096 60.0602 2.25
      vertex -56.4141 59.912 2.8
      vertex -56.9096 60.0602 2.8
    endloop
  endfacet
  facet normal -0.28655 -0.958065 -0
    outer loop
      vertex -56.4141 59.912 2.8
      vertex -56.9096 60.0602 2.25
      vertex -56.4141 59.912 2.25
    endloop
  endfacet
  facet normal -0.498877 -0.866673 0
    outer loop
      vertex -56.4141 59.912 2.25
      vertex -55.985 59.665 2.8
      vertex -56.4141 59.912 2.8
    endloop
  endfacet
  facet normal -0.498877 -0.866673 -0
    outer loop
      vertex -55.985 59.665 2.8
      vertex -56.4141 59.912 2.25
      vertex -55.985 59.665 2.25
    endloop
  endfacet
  facet normal -0.690044 -0.723768 0
    outer loop
      vertex -55.985 59.665 2.25
      vertex -55.6223 59.3192 2.8
      vertex -55.985 59.665 2.8
    endloop
  endfacet
  facet normal -0.690044 -0.723768 -0
    outer loop
      vertex -55.6223 59.3192 2.8
      vertex -55.985 59.665 2.25
      vertex -55.6223 59.3192 2.25
    endloop
  endfacet
  facet normal -0.832109 -0.554611 0
    outer loop
      vertex -55.3339 58.8865 2.25
      vertex -55.6223 59.3192 2.8
      vertex -55.6223 59.3192 2.25
    endloop
  endfacet
  facet normal -0.832109 -0.554611 0
    outer loop
      vertex -55.6223 59.3192 2.8
      vertex -55.3339 58.8865 2.25
      vertex -55.3339 58.8865 2.8
    endloop
  endfacet
  facet normal -0.926653 -0.375917 0
    outer loop
      vertex -55.1279 58.3787 2.25
      vertex -55.3339 58.8865 2.8
      vertex -55.3339 58.8865 2.25
    endloop
  endfacet
  facet normal -0.926653 -0.375917 0
    outer loop
      vertex -55.3339 58.8865 2.8
      vertex -55.1279 58.3787 2.25
      vertex -55.1279 58.3787 2.8
    endloop
  endfacet
  facet normal -0.978264 -0.207363 0
    outer loop
      vertex -55.0043 57.7956 2.25
      vertex -55.1279 58.3787 2.8
      vertex -55.1279 58.3787 2.25
    endloop
  endfacet
  facet normal -0.978264 -0.207363 0
    outer loop
      vertex -55.1279 58.3787 2.8
      vertex -55.0043 57.7956 2.25
      vertex -55.0043 57.7956 2.8
    endloop
  endfacet
  facet normal -0.998046 -0.0624821 0
    outer loop
      vertex -54.9631 57.1375 2.25
      vertex -55.0043 57.7956 2.8
      vertex -55.0043 57.7956 2.25
    endloop
  endfacet
  facet normal -0.998046 -0.0624821 0
    outer loop
      vertex -55.0043 57.7956 2.8
      vertex -54.9631 57.1375 2.25
      vertex -54.9631 57.1375 2.8
    endloop
  endfacet
  facet normal -0.998228 0.0595047 0
    outer loop
      vertex -55.0041 56.4497 2.25
      vertex -54.9631 57.1375 2.8
      vertex -54.9631 57.1375 2.25
    endloop
  endfacet
  facet normal -0.998228 0.0595047 0
    outer loop
      vertex -54.9631 57.1375 2.8
      vertex -55.0041 56.4497 2.25
      vertex -55.0041 56.4497 2.8
    endloop
  endfacet
  facet normal -0.979921 0.199388 0
    outer loop
      vertex -55.1271 55.8452 2.25
      vertex -55.0041 56.4497 2.8
      vertex -55.0041 56.4497 2.25
    endloop
  endfacet
  facet normal -0.979921 0.199388 0
    outer loop
      vertex -55.0041 56.4497 2.8
      vertex -55.1271 55.8452 2.25
      vertex -55.1271 55.8452 2.8
    endloop
  endfacet
  facet normal -0.930615 0.366 0
    outer loop
      vertex -55.3322 55.3237 2.25
      vertex -55.1271 55.8452 2.8
      vertex -55.1271 55.8452 2.25
    endloop
  endfacet
  facet normal -0.930615 0.366 0
    outer loop
      vertex -55.1271 55.8452 2.8
      vertex -55.3322 55.3237 2.25
      vertex -55.3322 55.3237 2.8
    endloop
  endfacet
  facet normal -0.836603 0.54781 0
    outer loop
      vertex -55.6192 54.8854 2.25
      vertex -55.3322 55.3237 2.8
      vertex -55.3322 55.3237 2.25
    endloop
  endfacet
  facet normal -0.836603 0.54781 0
    outer loop
      vertex -55.3322 55.3237 2.8
      vertex -55.6192 54.8854 2.25
      vertex -55.6192 54.8854 2.8
    endloop
  endfacet
  facet normal -0.691499 0.722378 0
    outer loop
      vertex -55.6192 54.8854 2.25
      vertex -55.9818 54.5383 2.8
      vertex -55.6192 54.8854 2.8
    endloop
  endfacet
  facet normal -0.691499 0.722378 0
    outer loop
      vertex -55.9818 54.5383 2.8
      vertex -55.6192 54.8854 2.25
      vertex -55.9818 54.5383 2.25
    endloop
  endfacet
  facet normal -0.498214 0.867054 0
    outer loop
      vertex -55.9818 54.5383 2.25
      vertex -56.4134 54.2903 2.8
      vertex -55.9818 54.5383 2.8
    endloop
  endfacet
  facet normal -0.498214 0.867054 0
    outer loop
      vertex -56.4134 54.2903 2.8
      vertex -55.9818 54.5383 2.25
      vertex -56.4134 54.2903 2.25
    endloop
  endfacet
  facet normal -0.284747 0.958603 0
    outer loop
      vertex -56.4134 54.2903 2.25
      vertex -56.914 54.1416 2.8
      vertex -56.4134 54.2903 2.8
    endloop
  endfacet
  facet normal -0.284747 0.958603 0
    outer loop
      vertex -56.914 54.1416 2.8
      vertex -56.4134 54.2903 2.25
      vertex -56.914 54.1416 2.25
    endloop
  endfacet
  facet normal -0.0867353 0.996231 0
    outer loop
      vertex -56.914 54.1416 2.25
      vertex -57.4837 54.092 2.8
      vertex -56.914 54.1416 2.8
    endloop
  endfacet
  facet normal -0.0867353 0.996231 0
    outer loop
      vertex -57.4837 54.092 2.8
      vertex -56.914 54.1416 2.25
      vertex -57.4837 54.092 2.25
    endloop
  endfacet
  facet normal 0.0917876 0.995779 -0
    outer loop
      vertex -57.4837 54.092 2.25
      vertex -58.0359 54.1429 2.8
      vertex -57.4837 54.092 2.8
    endloop
  endfacet
  facet normal 0.0917876 0.995779 0
    outer loop
      vertex -58.0359 54.1429 2.8
      vertex -57.4837 54.092 2.25
      vertex -58.0359 54.1429 2.25
    endloop
  endfacet
  facet normal 0.171923 -0.98511 0
    outer loop
      vertex -47.9145 52.8309 2.25
      vertex -47.3501 52.9294 2.8
      vertex -47.9145 52.8309 2.8
    endloop
  endfacet
  facet normal 0.171923 -0.98511 0
    outer loop
      vertex -47.3501 52.9294 2.8
      vertex -47.9145 52.8309 2.25
      vertex -47.3501 52.9294 2.25
    endloop
  endfacet
  facet normal 0.295809 -0.955247 0
    outer loop
      vertex -47.3501 52.9294 2.25
      vertex -46.8205 53.0934 2.8
      vertex -47.3501 52.9294 2.8
    endloop
  endfacet
  facet normal 0.295809 -0.955247 0
    outer loop
      vertex -46.8205 53.0934 2.8
      vertex -47.3501 52.9294 2.25
      vertex -46.8205 53.0934 2.25
    endloop
  endfacet
  facet normal 0.420847 -0.907131 0
    outer loop
      vertex -46.8205 53.0934 2.25
      vertex -46.3256 53.323 2.8
      vertex -46.8205 53.0934 2.8
    endloop
  endfacet
  facet normal 0.420847 -0.907131 0
    outer loop
      vertex -46.3256 53.323 2.8
      vertex -46.8205 53.0934 2.25
      vertex -46.3256 53.323 2.25
    endloop
  endfacet
  facet normal 0.543383 -0.839485 0
    outer loop
      vertex -46.3256 53.323 2.25
      vertex -45.8751 53.6146 2.8
      vertex -46.3256 53.323 2.8
    endloop
  endfacet
  facet normal 0.543383 -0.839485 0
    outer loop
      vertex -45.8751 53.6146 2.8
      vertex -46.3256 53.323 2.25
      vertex -45.8751 53.6146 2.25
    endloop
  endfacet
  facet normal 0.661966 -0.749534 0
    outer loop
      vertex -45.8751 53.6146 2.25
      vertex -45.4788 53.9646 2.8
      vertex -45.8751 53.6146 2.8
    endloop
  endfacet
  facet normal 0.661966 -0.749534 0
    outer loop
      vertex -45.4788 53.9646 2.8
      vertex -45.8751 53.6146 2.25
      vertex -45.4788 53.9646 2.25
    endloop
  endfacet
  facet normal 0.766418 -0.642342 0
    outer loop
      vertex -45.4788 53.9646 2.8
      vertex -45.1366 54.3729 2.25
      vertex -45.1366 54.3729 2.8
    endloop
  endfacet
  facet normal 0.766418 -0.642342 0
    outer loop
      vertex -45.1366 54.3729 2.25
      vertex -45.4788 53.9646 2.8
      vertex -45.4788 53.9646 2.25
    endloop
  endfacet
  facet normal 0.851007 -0.525155 0
    outer loop
      vertex -45.1366 54.3729 2.8
      vertex -44.8486 54.8396 2.25
      vertex -44.8486 54.8396 2.8
    endloop
  endfacet
  facet normal 0.851007 -0.525155 0
    outer loop
      vertex -44.8486 54.8396 2.25
      vertex -45.1366 54.3729 2.8
      vertex -45.1366 54.3729 2.25
    endloop
  endfacet
  facet normal 0.914808 -0.403888 0
    outer loop
      vertex -44.8486 54.8396 2.8
      vertex -44.6203 55.3567 2.25
      vertex -44.6203 55.3567 2.8
    endloop
  endfacet
  facet normal 0.914808 -0.403888 0
    outer loop
      vertex -44.6203 55.3567 2.25
      vertex -44.8486 54.8396 2.8
      vertex -44.8486 54.8396 2.25
    endloop
  endfacet
  facet normal 0.960073 -0.27975 0
    outer loop
      vertex -44.6203 55.3567 2.8
      vertex -44.4573 55.9161 2.25
      vertex -44.4573 55.9161 2.8
    endloop
  endfacet
  facet normal 0.960073 -0.27975 0
    outer loop
      vertex -44.4573 55.9161 2.25
      vertex -44.6203 55.3567 2.8
      vertex -44.6203 55.3567 2.25
    endloop
  endfacet
  facet normal 0.987021 -0.160594 0
    outer loop
      vertex -44.4573 55.9161 2.8
      vertex -44.3594 56.5178 2.25
      vertex -44.3594 56.5178 2.8
    endloop
  endfacet
  facet normal 0.987021 -0.160594 0
    outer loop
      vertex -44.3594 56.5178 2.25
      vertex -44.4573 55.9161 2.8
      vertex -44.4573 55.9161 2.25
    endloop
  endfacet
  facet normal 0.998721 -0.0505564 0
    outer loop
      vertex -44.3594 56.5178 2.8
      vertex -44.3268 57.1618 2.25
      vertex -44.3268 57.1618 2.8
    endloop
  endfacet
  facet normal 0.998721 -0.0505564 0
    outer loop
      vertex -44.3268 57.1618 2.25
      vertex -44.3594 56.5178 2.8
      vertex -44.3594 56.5178 2.25
    endloop
  endfacet
  facet normal 0.997029 0.077029 0
    outer loop
      vertex -44.3268 57.1618 2.8
      vertex -44.4012 58.1248 2.25
      vertex -44.4012 58.1248 2.8
    endloop
  endfacet
  facet normal 0.997029 0.077029 0
    outer loop
      vertex -44.4012 58.1248 2.25
      vertex -44.3268 57.1618 2.8
      vertex -44.3268 57.1618 2.25
    endloop
  endfacet
  facet normal 0.966816 0.255474 0
    outer loop
      vertex -44.4012 58.1248 2.8
      vertex -44.6243 58.9691 2.25
      vertex -44.6243 58.9691 2.8
    endloop
  endfacet
  facet normal 0.966816 0.255474 0
    outer loop
      vertex -44.6243 58.9691 2.25
      vertex -44.4012 58.1248 2.8
      vertex -44.4012 58.1248 2.25
    endloop
  endfacet
  facet normal 0.889894 0.456167 0
    outer loop
      vertex -44.6243 58.9691 2.8
      vertex -44.9963 59.6948 2.25
      vertex -44.9963 59.6948 2.8
    endloop
  endfacet
  facet normal 0.889894 0.456167 0
    outer loop
      vertex -44.9963 59.6948 2.25
      vertex -44.6243 58.9691 2.8
      vertex -44.6243 58.9691 2.25
    endloop
  endfacet
  facet normal 0.759054 0.651028 0
    outer loop
      vertex -44.9963 59.6948 2.8
      vertex -45.517 60.3019 2.25
      vertex -45.517 60.3019 2.8
    endloop
  endfacet
  facet normal 0.759054 0.651028 0
    outer loop
      vertex -45.517 60.3019 2.25
      vertex -44.9963 59.6948 2.8
      vertex -44.9963 59.6948 2.25
    endloop
  endfacet
  facet normal 0.589714 0.807612 -0
    outer loop
      vertex -45.517 60.3019 2.25
      vertex -46.1734 60.7812 2.8
      vertex -45.517 60.3019 2.8
    endloop
  endfacet
  facet normal 0.589714 0.807612 0
    outer loop
      vertex -46.1734 60.7812 2.8
      vertex -45.517 60.3019 2.25
      vertex -46.1734 60.7812 2.25
    endloop
  endfacet
  facet normal 0.402254 0.915528 -0
    outer loop
      vertex -46.1734 60.7812 2.25
      vertex -46.9527 61.1236 2.8
      vertex -46.1734 60.7812 2.8
    endloop
  endfacet
  facet normal 0.402254 0.915528 0
    outer loop
      vertex -46.9527 61.1236 2.8
      vertex -46.1734 60.7812 2.25
      vertex -46.9527 61.1236 2.25
    endloop
  endfacet
  facet normal 0.222009 0.975045 -0
    outer loop
      vertex -46.9527 61.1236 2.25
      vertex -47.8548 61.329 2.8
      vertex -46.9527 61.1236 2.8
    endloop
  endfacet
  facet normal 0.222009 0.975045 0
    outer loop
      vertex -47.8548 61.329 2.8
      vertex -46.9527 61.1236 2.25
      vertex -47.8548 61.329 2.25
    endloop
  endfacet
  facet normal 0.0665901 0.99778 -0
    outer loop
      vertex -47.8548 61.329 2.25
      vertex -48.8797 61.3974 2.8
      vertex -47.8548 61.329 2.8
    endloop
  endfacet
  facet normal 0.0665901 0.99778 0
    outer loop
      vertex -48.8797 61.3974 2.8
      vertex -47.8548 61.329 2.25
      vertex -48.8797 61.3974 2.25
    endloop
  endfacet
  facet normal 0 1 -0
    outer loop
      vertex -48.8797 61.3974 2.25
      vertex -51.9924 61.3974 2.8
      vertex -48.8797 61.3974 2.8
    endloop
  endfacet
  facet normal 0 1 0
    outer loop
      vertex -51.9924 61.3974 2.8
      vertex -48.8797 61.3974 2.25
      vertex -51.9924 61.3974 2.25
    endloop
  endfacet
  facet normal -1 0 0
    outer loop
      vertex -51.9924 52.7981 2.25
      vertex -51.9924 61.3974 2.8
      vertex -51.9924 61.3974 2.25
    endloop
  endfacet
  facet normal -1 -0 0
    outer loop
      vertex -51.9924 61.3974 2.8
      vertex -51.9924 52.7981 2.25
      vertex -51.9924 52.7981 2.8
    endloop
  endfacet
  facet normal 0 -1 0
    outer loop
      vertex -51.9924 52.7981 2.25
      vertex -48.5136 52.7981 2.8
      vertex -51.9924 52.7981 2.8
    endloop
  endfacet
  facet normal 0 -1 -0
    outer loop
      vertex -48.5136 52.7981 2.8
      vertex -51.9924 52.7981 2.25
      vertex -48.5136 52.7981 2.25
    endloop
  endfacet
  facet normal 0.0546669 -0.998505 0
    outer loop
      vertex -48.5136 52.7981 2.25
      vertex -47.9145 52.8309 2.8
      vertex -48.5136 52.7981 2.8
    endloop
  endfacet
  facet normal 0.0546669 -0.998505 0
    outer loop
      vertex -47.9145 52.8309 2.8
      vertex -48.5136 52.7981 2.25
      vertex -47.9145 52.8309 2.25
    endloop
  endfacet
  facet normal 1 -0 0
    outer loop
      vertex -50.1919 54.1896 2.8
      vertex -50.1919 60.006 2.25
      vertex -50.1919 60.006 2.8
    endloop
  endfacet
  facet normal 1 0 0
    outer loop
      vertex -50.1919 60.006 2.25
      vertex -50.1919 54.1896 2.8
      vertex -50.1919 54.1896 2.25
    endloop
  endfacet
  facet normal 0 -1 0
    outer loop
      vertex -50.1919 60.006 2.25
      vertex -48.9164 60.006 2.8
      vertex -50.1919 60.006 2.8
    endloop
  endfacet
  facet normal 0 -1 -0
    outer loop
      vertex -48.9164 60.006 2.8
      vertex -50.1919 60.006 2.25
      vertex -48.9164 60.006 2.25
    endloop
  endfacet
  facet normal -0.0722149 -0.997389 0
    outer loop
      vertex -48.9164 60.006 2.25
      vertex -48.2866 59.9604 2.8
      vertex -48.9164 60.006 2.8
    endloop
  endfacet
  facet normal -0.0722149 -0.997389 -0
    outer loop
      vertex -48.2866 59.9604 2.8
      vertex -48.9164 60.006 2.25
      vertex -48.2866 59.9604 2.25
    endloop
  endfacet
  facet normal -0.240262 -0.970708 0
    outer loop
      vertex -48.2866 59.9604 2.25
      vertex -47.7339 59.8236 2.8
      vertex -48.2866 59.9604 2.8
    endloop
  endfacet
  facet normal -0.240262 -0.970708 -0
    outer loop
      vertex -47.7339 59.8236 2.8
      vertex -48.2866 59.9604 2.25
      vertex -47.7339 59.8236 2.25
    endloop
  endfacet
  facet normal -0.432059 -0.901845 0
    outer loop
      vertex -47.7339 59.8236 2.25
      vertex -47.2582 59.5957 2.8
      vertex -47.7339 59.8236 2.8
    endloop
  endfacet
  facet normal -0.432059 -0.901845 -0
    outer loop
      vertex -47.2582 59.5957 2.8
      vertex -47.7339 59.8236 2.25
      vertex -47.2582 59.5957 2.25
    endloop
  endfacet
  facet normal -0.624958 -0.780659 0
    outer loop
      vertex -47.2582 59.5957 2.25
      vertex -46.8596 59.2766 2.8
      vertex -47.2582 59.5957 2.8
    endloop
  endfacet
  facet normal -0.624958 -0.780659 -0
    outer loop
      vertex -46.8596 59.2766 2.8
      vertex -47.2582 59.5957 2.25
      vertex -46.8596 59.2766 2.25
    endloop
  endfacet
  facet normal -0.789771 -0.613401 0
    outer loop
      vertex -46.5445 58.8709 2.25
      vertex -46.8596 59.2766 2.8
      vertex -46.8596 59.2766 2.25
    endloop
  endfacet
  facet normal -0.789771 -0.613401 0
    outer loop
      vertex -46.8596 59.2766 2.8
      vertex -46.5445 58.8709 2.25
      vertex -46.5445 58.8709 2.8
    endloop
  endfacet
  facet normal -0.907954 -0.41907 0
    outer loop
      vertex -46.3194 58.3832 2.25
      vertex -46.5445 58.8709 2.8
      vertex -46.5445 58.8709 2.25
    endloop
  endfacet
  facet normal -0.907954 -0.41907 0
    outer loop
      vertex -46.5445 58.8709 2.8
      vertex -46.3194 58.3832 2.25
      vertex -46.3194 58.3832 2.8
    endloop
  endfacet
  facet normal -0.973053 -0.230581 0
    outer loop
      vertex -46.1844 57.8135 2.25
      vertex -46.3194 58.3832 2.8
      vertex -46.3194 58.3832 2.25
    endloop
  endfacet
  facet normal -0.973053 -0.230581 0
    outer loop
      vertex -46.3194 58.3832 2.8
      vertex -46.1844 57.8135 2.25
      vertex -46.1844 57.8135 2.8
    endloop
  endfacet
  facet normal -0.997625 -0.0688861 0
    outer loop
      vertex -46.1394 57.1618 2.25
      vertex -46.1844 57.8135 2.8
      vertex -46.1844 57.8135 2.25
    endloop
  endfacet
  facet normal -0.997625 -0.0688861 0
    outer loop
      vertex -46.1844 57.8135 2.8
      vertex -46.1394 57.1618 2.25
      vertex -46.1394 57.1618 2.8
    endloop
  endfacet
  facet normal -0.997854 0.0654808 0
    outer loop
      vertex -46.1821 56.5111 2.25
      vertex -46.1394 57.1618 2.8
      vertex -46.1394 57.1618 2.25
    endloop
  endfacet
  facet normal -0.997854 0.0654808 0
    outer loop
      vertex -46.1394 57.1618 2.8
      vertex -46.1821 56.5111 2.25
      vertex -46.1821 56.5111 2.8
    endloop
  endfacet
  facet normal -0.976353 0.21618 0
    outer loop
      vertex -46.3103 55.9321 2.25
      vertex -46.1821 56.5111 2.8
      vertex -46.1821 56.5111 2.25
    endloop
  endfacet
  facet normal -0.976353 0.21618 0
    outer loop
      vertex -46.1821 56.5111 2.8
      vertex -46.3103 55.9321 2.25
      vertex -46.3103 55.9321 2.8
    endloop
  endfacet
  facet normal -0.921663 0.387992 0
    outer loop
      vertex -46.5239 55.4247 2.25
      vertex -46.3103 55.9321 2.8
      vertex -46.3103 55.9321 2.25
    endloop
  endfacet
  facet normal -0.921663 0.387992 0
    outer loop
      vertex -46.3103 55.9321 2.8
      vertex -46.5239 55.4247 2.25
      vertex -46.5239 55.4247 2.8
    endloop
  endfacet
  facet normal -0.824373 0.566047 0
    outer loop
      vertex -46.823 54.9891 2.25
      vertex -46.5239 55.4247 2.8
      vertex -46.5239 55.4247 2.25
    endloop
  endfacet
  facet normal -0.824373 0.566047 0
    outer loop
      vertex -46.5239 55.4247 2.8
      vertex -46.823 54.9891 2.25
      vertex -46.823 54.9891 2.8
    endloop
  endfacet
  facet normal -0.685524 0.72805 0
    outer loop
      vertex -46.823 54.9891 2.25
      vertex -47.1945 54.6393 2.8
      vertex -46.823 54.9891 2.8
    endloop
  endfacet
  facet normal -0.685524 0.72805 0
    outer loop
      vertex -47.1945 54.6393 2.8
      vertex -46.823 54.9891 2.25
      vertex -47.1945 54.6393 2.25
    endloop
  endfacet
  facet normal -0.501448 0.865188 0
    outer loop
      vertex -47.1945 54.6393 2.25
      vertex -47.6255 54.3895 2.8
      vertex -47.1945 54.6393 2.8
    endloop
  endfacet
  facet normal -0.501448 0.865188 0
    outer loop
      vertex -47.6255 54.3895 2.8
      vertex -47.1945 54.6393 2.25
      vertex -47.6255 54.3895 2.25
    endloop
  endfacet
  facet normal -0.292209 0.956355 0
    outer loop
      vertex -47.6255 54.3895 2.25
      vertex -48.1161 54.2396 2.8
      vertex -47.6255 54.3895 2.8
    endloop
  endfacet
  facet normal -0.292209 0.956355 0
    outer loop
      vertex -48.1161 54.2396 2.8
      vertex -47.6255 54.3895 2.25
      vertex -48.1161 54.2396 2.25
    endloop
  endfacet
  facet normal -0.0905194 0.995895 0
    outer loop
      vertex -48.1161 54.2396 2.25
      vertex -48.6662 54.1896 2.8
      vertex -48.1161 54.2396 2.8
    endloop
  endfacet
  facet normal -0.0905194 0.995895 0
    outer loop
      vertex -48.6662 54.1896 2.8
      vertex -48.1161 54.2396 2.25
      vertex -48.6662 54.1896 2.25
    endloop
  endfacet
  facet normal 0 1 -0
    outer loop
      vertex -48.6662 54.1896 2.25
      vertex -50.1919 54.1896 2.8
      vertex -48.6662 54.1896 2.8
    endloop
  endfacet
  facet normal 0 1 0
    outer loop
      vertex -50.1919 54.1896 2.8
      vertex -48.6662 54.1896 2.25
      vertex -50.1919 54.1896 2.25
    endloop
  endfacet
  facet normal -1 0 0
    outer loop
      vertex -59 74 0
      vertex -59 61.31 2.25
      vertex -59 74 2.25
    endloop
  endfacet
  facet normal -1 0 0
    outer loop
      vertex -59 61.31 2.25
      vertex -59 59.6451 2.25
      vertex -59 61.31 2.8
    endloop
  endfacet
  facet normal -1 0 0
    outer loop
      vertex -59 74 0
      vertex -59 59.6451 2.25
      vertex -59 61.31 2.25
    endloop
  endfacet
  facet normal -1 0 0
    outer loop
      vertex -59 74 0
      vertex -59 54.593 2.25
      vertex -59 59.6451 2.25
    endloop
  endfacet
  facet normal -1 0 0
    outer loop
      vertex -59 54.593 2.25
      vertex -59 52.8977 2.25
      vertex -59 54.593 2.8
    endloop
  endfacet
  facet normal -1 0 0
    outer loop
      vertex -59 40 0
      vertex -59 54.593 2.25
      vertex -59 74 0
    endloop
  endfacet
  facet normal -1 -0 0
    outer loop
      vertex -59 54.593 2.25
      vertex -59 40 0
      vertex -59 52.8977 2.25
    endloop
  endfacet
  facet normal -1 -0 0
    outer loop
      vertex -59 52.8977 2.25
      vertex -59 40 0
      vertex -59 40 2.25
    endloop
  endfacet
  facet normal -1 -0 0
    outer loop
      vertex -59 61.31 2.8
      vertex -59 59.6451 2.25
      vertex -59 59.6451 2.8
    endloop
  endfacet
  facet normal -1 -0 0
    outer loop
      vertex -59 54.593 2.8
      vertex -59 52.8977 2.25
      vertex -59 52.8977 2.8
    endloop
  endfacet
  facet normal 1 -0 0
    outer loop
      vertex 76 -19 6
      vertex 76 19 0
      vertex 76 19 6
    endloop
  endfacet
  facet normal 1 0 0
    outer loop
      vertex 76 19 0
      vertex 76 -19 6
      vertex 76 -19 0
    endloop
  endfacet
  facet normal 0 0 1
    outer loop
      vertex 76 19 6
      vertex 73 16 6
      vertex 76 -19 6
    endloop
  endfacet
  facet normal 0 0 1
    outer loop
      vertex 76 19 6
      vertex 3 16 6
      vertex 73 16 6
    endloop
  endfacet
  facet normal 0 0 1
    outer loop
      vertex 3 16 6
      vertex 0 19 6
      vertex 3 -16 6
    endloop
  endfacet
  facet normal -0 0 1
    outer loop
      vertex 0 19 6
      vertex 3 16 6
      vertex 76 19 6
    endloop
  endfacet
  facet normal -0 0 1
    outer loop
      vertex 73 -16 6
      vertex 76 -19 6
      vertex 73 16 6
    endloop
  endfacet
  facet normal -0 0 1
    outer loop
      vertex 3 -16 6
      vertex 76 -19 6
      vertex 73 -16 6
    endloop
  endfacet
  facet normal 0 0 1
    outer loop
      vertex 3 -16 6
      vertex 0 -19 6
      vertex 76 -19 6
    endloop
  endfacet
  facet normal 0 0 1
    outer loop
      vertex 0 -19 6
      vertex 3 -16 6
      vertex 0 19 6
    endloop
  endfacet
  facet normal 0 0 -1
    outer loop
      vertex 76 -19 0
      vertex 73 -16 0
      vertex 76 19 0
    endloop
  endfacet
  facet normal 0 0 -1
    outer loop
      vertex 76 -19 0
      vertex 3 -16 0
      vertex 73 -16 0
    endloop
  endfacet
  facet normal -0 0 -1
    outer loop
      vertex 3 -16 0
      vertex 0 -19 0
      vertex 3 16 0
    endloop
  endfacet
  facet normal 0 0 -1
    outer loop
      vertex 0 -19 0
      vertex 3 -16 0
      vertex 76 -19 0
    endloop
  endfacet
  facet normal 0 0 -1
    outer loop
      vertex 73 16 0
      vertex 76 19 0
      vertex 73 -16 0
    endloop
  endfacet
  facet normal 0 0 -1
    outer loop
      vertex 3 16 0
      vertex 76 19 0
      vertex 73 16 0
    endloop
  endfacet
  facet normal 0 0 -1
    outer loop
      vertex 3 16 0
      vertex 0 19 0
      vertex 76 19 0
    endloop
  endfacet
  facet normal 0 0 -1
    outer loop
      vertex 0 19 0
      vertex 3 16 0
      vertex 0 -19 0
    endloop
  endfacet
  facet normal -1 0 0
    outer loop
      vertex 0 -19 0
      vertex 0 19 6
      vertex 0 19 0
    endloop
  endfacet
  facet normal -1 -0 0
    outer loop
      vertex 0 19 6
      vertex 0 -19 0
      vertex 0 -19 6
    endloop
  endfacet
  facet normal 0 1 -0
    outer loop
      vertex 76 19 0
      vertex 0 19 6
      vertex 76 19 6
    endloop
  endfacet
  facet normal 0 1 0
    outer loop
      vertex 0 19 6
      vertex 76 19 0
      vertex 0 19 0
    endloop
  endfacet
  facet normal 0 -1 0
    outer loop
      vertex 0 -19 0
      vertex 76 -19 6
      vertex 0 -19 6
    endloop
  endfacet
  facet normal 0 -1 -0
    outer loop
      vertex 76 -19 6
      vertex 0 -19 0
      vertex 76 -19 0
    endloop
  endfacet
  facet normal -1 0 0
    outer loop
      vertex 73 -16 0
      vertex 73 16 6
      vertex 73 16 0
    endloop
  endfacet
  facet normal -1 -0 0
    outer loop
      vertex 73 16 6
      vertex 73 -16 0
      vertex 73 -16 6
    endloop
  endfacet
  facet normal 1 -0 0
    outer loop
      vertex 3 -16 6
      vertex 3 16 0
      vertex 3 16 6
    endloop
  endfacet
  facet normal 1 0 0
    outer loop
      vertex 3 16 0
      vertex 3 -16 6
      vertex 3 -16 0
    endloop
  endfacet
  facet normal 0 -1 0
    outer loop
      vertex 3 16 0
      vertex 73 16 6
      vertex 3 16 6
    endloop
  endfacet
  facet normal 0 -1 -0
    outer loop
      vertex 73 16 6
      vertex 3 16 0
      vertex 73 16 0
    endloop
  endfacet
  facet normal 0 1 -0
    outer loop
      vertex 73 -16 0
      vertex 3 -16 6
      vertex 73 -16 6
    endloop
  endfacet
  facet normal 0 1 0
    outer loop
      vertex 3 -16 6
      vertex 73 -16 0
      vertex 3 -16 0
    endloop
  endfacet
endsolid OpenSCAD_Model
